<?xml version="1.0" encoding="iso-8859-1"?>
<!-- Generator: Adobe Illustrator 19.0.0, SVG Export Plug-In . SVG Version: 6.00 Build 0)  -->
<svg version="1.1" id="Layer_1" xmlns="http://www.w3.org/2000/svg" xmlns:xlink="http://www.w3.org/1999/xlink" x="0px" y="0px"
	 viewBox="0 0 512 512" style="enable-background:new 0 0 512 512;" xml:space="preserve">
<circle style="fill:#A7D9FF;" cx="256" cy="256" r="256"/>
<path style="fill:#BEE6FF;" d="M49.005,105.437C18.213,147.696,0,199.709,0,256c0,69.346,27.618,132.209,72.398,178.311
	c66.602,0,297.602,0,367.204,0C484.383,388.209,512,325.346,512,256c0-56.291-18.213-108.304-49.005-150.563
	C407.187,74.625,334.958,56,256,56S104.813,74.625,49.005,105.437z"/>
<path style="fill:#E5F0FF;" d="M5.911,201.333l248.75,24l251.429-24c-9.967-45.801-32.18-87.005-63.055-120.044
	C431.371,79.645,419.161,77.302,409,76.5c-6.333-0.5-22,17.5-28,16.167c-5.57-1.238-17-9.334-51.667-9.334
	c-26.667,0-64.667,49.667-72.667,49.667s-54.809-38.908-72.667-45c-28.333-9.667-44.241,10.939-68,14.333
	c-30.333,4.333-43,1.667-76.305,16.814C23.951,143.979,12.362,171.688,5.911,201.333z"/>
<path style="fill:#CCE1FF;" d="M468.818,113.708C446.889,106.598,413.321,96,408,96c-8,0-8,0-8,24s-24,8-40-16
	s-36.225-25.225-40.5-14.75C309.5,113.75,256,217,256,217s0-73,0-81s-56-48-72-48s-48,64-48,64v72h373.938
	C504.89,183.551,490.466,146.022,468.818,113.708z"/>
<path style="fill:#AACDFF;" d="M0.202,248h511.596c-0.952-30.952-7.381-60.51-18.38-87.752C462.371,146.252,429,135.333,420,135.333
	c-8,0-7.333,22.667-15.333,22.667S368,104,360,104s-16,64-24,64s-24-48-32-48c-14.667,0-38,84-48.667,84c-16,0-95.333-60-111.333-60
	c-10.237,0-79.384,13.093-127.895,22.529C6.598,192.01,1.082,219.417,0.202,248z"/>
<path style="fill:#98B9E9;" d="M512,256c0-15.774-1.502-31.189-4.233-46.175C476.65,210.51,427.749,211.064,398,206
	c-62.667-10.667-98.851,10-132,22c-24.117,8.73-72.508,13.5-105-2.5S96.244,213.266,80,213c-30.5-0.5-54-5.5-71.947-20.95
	C2.796,212.491,0,233.919,0,256c0,13.61,1.085,26.964,3.131,40h505.738C510.915,282.964,512,269.61,512,256z"/>
<g>
	<polygon style="fill:#AACDFF;" points="241.881,232 231.404,302.312 222.119,240 204.238,360 240,360 238.808,352 259.762,352 	"/>
	<polygon style="fill:#AACDFF;" points="158.119,240 149.523,297.688 142.119,248 132.834,310.312 122.357,240 104.476,360 
		125.43,360 124.238,368 160,368 158.808,360 176,360 	"/>
	<polygon style="fill:#AACDFF;" points="52.596,259.467 46.119,216 38.715,265.688 30.119,208 12.238,328 29.43,328 28.238,336 
		41.192,336 40,344 75.762,344 57.881,224 	"/>
	<polygon style="fill:#AACDFF;" points="310.119,216 305.523,246.844 302.119,224 284.238,344 320,344 318.808,336 328,336 	"/>
	<polygon style="fill:#AACDFF;" points="361.881,176 353.285,233.688 345.881,184 328,304 363.762,304 362.57,296 379.762,296 	"/>
</g>
<path style="fill:#E5F0FF;" d="M400,192c-51,31-109,106-175,94c-27.212-4.948-64.217-1.643-97,2
	c-55.835,6.204-106.837-35.687-126.934-54.817C0.401,240.706,0,248.305,0,256c0,141.385,114.615,256,256,256s256-114.615,256-256
	c0-28.291-4.657-55.479-13.132-80.922C465.968,171.028,427.803,175.1,400,192z"/>
<polygon style="fill:#AACDFF;" points="444.6,197 428.143,341 461.057,341 "/>
<polygon style="fill:#CCE1FF;" points="444.6,197 440.486,233 452.829,341 461.057,341 "/>
<polygon style="fill:#AACDFF;" points="469.1,207 447.643,351 490.557,351 "/>
<polygon style="fill:#CCE1FF;" points="469.1,207 463.736,243 479.829,351 490.557,351 "/>
<polygon style="fill:#AACDFF;" points="360.1,237.5 338.643,381.5 381.557,381.5 "/>
<polygon style="fill:#CCE1FF;" points="360.1,237.5 354.736,273.5 370.829,381.5 381.557,381.5 "/>
<polygon style="fill:#AACDFF;" points="418.6,214.5 397.643,358.5 439.557,358.5 "/>
<polygon style="fill:#CCE1FF;" points="418.6,214.5 413.361,250.5 429.079,358.5 439.557,358.5 "/>
<polygon style="fill:#AACDFF;" points="145.267,269.833 124.31,413.833 166.224,413.833 "/>
<polygon style="fill:#CCE1FF;" points="145.267,269.833 140.027,305.833 155.745,413.833 166.224,413.833 "/>
<polygon style="fill:#AACDFF;" points="56.6,252 38.19,378.5 75.01,378.5 "/>
<polygon style="fill:#CCE1FF;" points="56.6,252 51.997,283.625 65.805,378.5 75.01,378.5 "/>
<path style="fill:#AACDFF;" d="M12.363,334.649c5.173,16.035,11.882,31.373,19.958,45.851H42.51L24.1,254L12.363,334.649z"/>
<polygon style="fill:#CCE1FF;" points="24.1,254 19.497,285.625 33.305,380.5 42.51,380.5 "/>
<polygon style="fill:#AACDFF;" points="232.267,251.5 211.31,395.5 253.224,395.5 "/>
<polygon style="fill:#CCE1FF;" points="232.267,251.5 227.027,287.5 242.745,395.5 253.224,395.5 "/>
<polygon style="fill:#AACDFF;" points="338.6,230 317.643,374 359.557,374 "/>
<polygon style="fill:#CCE1FF;" points="338.6,230 333.361,266 349.079,374 359.557,374 "/>
<polygon style="fill:#AACDFF;" points="201.6,225.667 180.643,369.667 222.557,369.667 "/>
<polygon style="fill:#CCE1FF;" points="201.6,225.667 196.361,261.667 212.079,369.667 222.557,369.667 "/>
<polygon style="fill:#AACDFF;" points="120.267,254.333 99.31,398.333 141.224,398.333 "/>
<g>
	<polygon style="fill:#CCE1FF;" points="120.267,254.333 115.027,290.333 130.745,398.333 141.224,398.333 	"/>
	<path style="fill:#CCE1FF;" d="M256,512c118.043,0,217.366-79.919,246.964-188.583C465,297,430,310,389,322
		c-41.347,12.102-69-15-125,14c-53.648,27.782-77-8-126,21c-43.517,25.755-89.449,11.229-116.436,1.845
		C61.176,449.005,151.208,512,256,512z"/>
</g>
<polygon style="fill:#86A5D2;" points="265.143,192 236.8,440 293.486,440 "/>
<polygon style="fill:#AACDFF;" points="265.143,192 258.057,254 279.314,440 293.486,440 "/>
<polygon style="fill:#86A5D2;" points="88,184 62.4,408 113.6,408 "/>
<polygon style="fill:#AACDFF;" points="88,184 81.6,240 100.8,408 113.6,408 "/>
<polygon style="fill:#86A5D2;" points="385.6,264 369.143,408 402.057,408 "/>
<polygon style="fill:#AACDFF;" points="385.6,264 381.486,300 393.829,408 402.057,408 "/>
<polygon style="fill:#86A5D2;" points="215.543,291.2 187.2,440 243.886,440 "/>
<polygon style="fill:#AACDFF;" points="215.543,291.2 208.457,328.4 229.714,440 243.886,440 "/>
<polygon style="fill:#86A5D2;" points="307.657,241.6 279.314,440 336,440 "/>
<polygon style="fill:#AACDFF;" points="307.657,241.6 300.571,291.2 321.829,440 336,440 "/>
<polygon style="fill:#86A5D2;" points="173.029,262.857 149.747,425.829 196.31,425.829 "/>
<g>
	<polygon style="fill:#AACDFF;" points="173.029,262.857 167.208,303.6 184.669,425.829 196.31,425.829 	"/>
	<path style="fill:#AACDFF;" d="M42.652,397.464C88.509,466.483,166.925,512,256,512c80.665,0,152.572-37.344,199.495-95.646
		C426.866,409.49,399.134,403.027,384,400c-40-8-128,40-184,24C130.337,404.096,98.538,395.086,42.652,397.464z"/>
</g>
<g>
	<circle style="fill:#CCE1FF;" cx="192" cy="480" r="6.667"/>
	<circle style="fill:#CCE1FF;" cx="322.67" cy="443.33" r="6.667"/>
</g>
<g>
	<circle style="fill:#AACDFF;" cx="353.92" cy="379.58" r="5.083"/>
	<circle style="fill:#AACDFF;" cx="416" cy="340" r="5.083"/>
	<circle style="fill:#AACDFF;" cx="443.33" cy="391.33" r="5.083"/>
	<circle style="fill:#AACDFF;" cx="139.33" cy="394.42" r="5.083"/>
	<circle style="fill:#AACDFF;" cx="338" cy="347.08" r="5.083"/>
</g>
<g>
	<circle style="fill:#E5F0FF;" cx="427.33" cy="367.33" r="5.083"/>
	<circle style="fill:#E5F0FF;" cx="49.33" cy="384.42" r="5.083"/>
	<circle style="fill:#E5F0FF;" cx="149.75" cy="372.67" r="5.083"/>
	<circle style="fill:#E5F0FF;" cx="461.58" cy="337.33" r="5.083"/>
</g>
<circle style="fill:#CCE1FF;" cx="151.33" cy="441.33" r="6.667"/>
<g>
	<circle style="fill:#98B9E9;" cx="228.5" cy="463.5" r="6.667"/>
	<circle style="fill:#98B9E9;" cx="362" cy="460" r="6.667"/>
	<circle style="fill:#98B9E9;" cx="280.67" cy="477.33" r="6.667"/>
</g>
<g>
</g>
<g>
</g>
<g>
</g>
<g>
</g>
<g>
</g>
<g>
</g>
<g>
</g>
<g>
</g>
<g>
</g>
<g>
</g>
<g>
</g>
<g>
</g>
<g>
</g>
<g>
</g>
<g>
</g>
</svg>
