<?xml version="1.0" encoding="iso-8859-1"?>
<!-- Generator: Adobe Illustrator 19.0.0, SVG Export Plug-In . SVG Version: 6.00 Build 0)  -->
<svg version="1.1" id="Layer_1" xmlns="http://www.w3.org/2000/svg" xmlns:xlink="http://www.w3.org/1999/xlink" x="0px" y="0px"
	 viewBox="0 0 512 512" style="enable-background:new 0 0 512 512;" xml:space="preserve">
<circle style="fill:#9FA5EB;" cx="256" cy="256" r="256"/>
<path style="fill:#BCB0D7;" d="M458.03,98.872C328.157,118.627,100.846,158.184,5.037,205.327C1.747,221.709,0,238.649,0,256
	c0,141.385,114.615,256,256,256s256-114.615,256-256C512,196.753,491.819,142.253,458.03,98.872z"/>
<path style="fill:#D0BCC9;" d="M0.756,274.735C10.36,407.362,120.923,512,256,512c141.385,0,256-114.615,256-256
	c0-31.499-5.72-61.653-16.126-89.522c-22.731-1.463-45.95-2.246-69.585-2.246C244.341,164.231,85.603,208.695,0.756,274.735z"/>
<path style="fill:#6E78C8;" d="M31.192,133.464L337,188.5c0,0-29.5-18.5-39-20.5s-19.778,1.339-26.667-7
	c-6.333-7.667-16-11-39.667-13.667c-15.411-1.736-22.141-3.962-27.667-9.833c-13.333-14.167-21-11-43-12.5
	c-18.396-1.254-24.5-26-50.5-23c-23.194,2.676-35.673-6.024-48.229-13.241C50.415,102.479,39.95,117.431,31.192,133.464z"/>
<path style="fill:#788CD7;" d="M0,256c0,141.385,114.615,256,256,256s256-114.615,256-256c0-10.846-0.753-21.509-2.062-32H2.062
	C0.753,234.491,0,245.154,0,256z"/>
<g>
	<path style="fill:#8A99DC;" d="M466.901,235.146c-16.387,2.132-30.317,4.687-29.901,7.187c1,6-39.376,4.419-44,13.667
		c-3.667,7.333-20.226,8.432-31.333,9.667c-12,1.333-7.333,7.333-11.333,10.667C345.928,280.004,321.5,282.5,330,287
		s-29.974,18.031-36.667,23.667C287,316,308.5,334,286,341.5c-18.417,6.139-64.667,5.167-51.333,37.167
		c11.446,27.471-30.155,81.438-65.784,118.105c20.92,7.571,43.121,12.436,66.173,14.304C260,480.667,275.333,431.333,261.333,388
		c-6.287-19.46-0.18-25.476,17-29c26-5.333,49-23.667,41.667-36.333S351.333,296,353.333,292S350,284.667,360,280.667
		s2.25-5.417,11-7.667s30.25-9.25,31.75-14.5s32.727-6.977,38.25-12.5c5-5,4-6,14-8C459.107,237.179,462.798,237.08,466.901,235.146
		z"/>
	<path style="fill:#8A99DC;" d="M153.403,490.548c5.082,2.226,10.23,4.323,15.478,6.223
		C163.633,494.873,158.482,492.774,153.403,490.548z"/>
</g>
<path style="fill:#9BA5E1;" d="M385.43,476.844L458.5,236c0,0-11.5,3.25-17.75,15.5c-3.665,7.183-21.25,11.5-41.083,22.167
	C380.968,283.723,383,301.167,379,312.5s-63.5,30.5-76.333,72.833c-10.162,33.521-6.147,86.224-19.365,125.202
	C320.271,506.615,354.865,494.796,385.43,476.844z"/>
<path style="fill:#6E78C8;" d="M512,256c0-10.846-0.753-21.509-2.062-32H487c-33,11-39.141,18.478-41.667,25.333
	c-2.074,5.63-9.333,15.333-32.667,24.667c-26.494,10.597-4.47,29.744-18,47.333c-13.333,17.333-54.823,30.824-58.667,72
	c-2.708,29.009-3.417,72.766-7.164,108.092C434.728,470.043,512,372.072,512,256z"/>
<path style="fill:#C47D64;" d="M510.735,230.573c-0.472-4.786-1.074-9.532-1.806-14.237L195,228L56.132,415.88
	c29.169,36.417,68.044,64.713,112.75,80.892c35.628-36.668,77.23-90.635,65.784-118.105c-13.333-32,32.916-31.027,51.333-37.167
	c22.5-7.5,1-25.5,7.333-30.833C300.026,305.031,338.5,291.5,330,287s15.928-6.995,20.333-10.667c4-3.333-0.667-9.333,11.333-10.667
	c11.107-1.234,27.667-2.333,31.333-9.667c4.624-9.247,45-7.667,44-13.667C436.179,237.406,491.06,232.258,510.735,230.573z"/>
<path style="fill:#CAA5AA;" d="M505.503,198.792L419,194.5l-6,36l97.064-5.503C508.991,216.112,507.462,207.372,505.503,198.792z"/>
<polygon style="fill:#D3A59D;" points="357.75,186 424,192 416,240 359.25,246.375 "/>
<g style="opacity:0.45;">
	<path style="fill:#D7875F;" d="M389,208c-4-0.333-6.833,7.5-11.5,5.167c-4.667-2.333-18.5-12.834-18.5-12.834l5.125,45.542
		l34.737-3.971C396.66,230.471,391.948,208.246,389,208z"/>
</g>
<polygon style="fill:#DBA590;" points="328,264 368,256 360,184 351.997,184 328,184 "/>
<g style="opacity:0.65;">
	<path style="fill:#D7875F;" d="M351.077,259.385l-6.306-44.897c-0.324-2.307-3.114-3.291-4.814-1.698l-6.707,7.96l0.306,42.139
		L351.077,259.385z"/>
</g>
<polygon style="fill:#E4A583;" points="296,280 336,272 336,184 288,176 "/>
<path style="fill:#F4BA8E;" d="M336,184l-41.269-6.878c-0.228,3.123-0.231,7.128-0.231,7.128c8.667-0.417,21.935,7.876,25.75,12
	c8.25,8.917,15.083,8.25,15.75,1.948V184z"/>
<g style="opacity:0.7;">
	<path style="fill:#D7875F;" d="M304,208c-8,0-16,0-16,0l14.957,70.609l16.49-3.298C317.531,259.499,310.775,208,304,208z"/>
</g>
<polygon style="fill:#F5A569;" points="240,312 304,288 296,176 240,168 "/>
<path style="fill:#FFC896;" d="M280,188c10,8.5,15.667,8.167,17.004,2.059L296,176l-42.048-6.007
	c0.446,3.971,0.298,11.257,0.298,11.257S275.504,184.179,280,188z"/>
<polygon style="fill:#D7875F;" points="287.66,294.127 272,208 256,200 256,304 256,306 "/>
<polygon style="fill:#F5A569;" points="184.5,345.5 262.333,327.667 256.5,161.5 176.5,153.5 "/>
<path style="fill:#FFC896;" d="M256.5,161.5l-65.75-6.583L191.5,163c29.5,4.75,37,23.25,48.75,23.25
	c8.881,0,13.769-13.178,16.854-12.057L256.5,161.5z"/>
<path style="fill:#D7875F;" d="M197.484,176H192l7.849,164.83l39.536-7.907l-29.322-146.611
	C208.863,180.316,203.599,176,197.484,176z"/>
<path style="fill:#BE6E5A;" d="M239.341,332.988c0,0-15.716-3.48-19.576-7.341C216.094,321.976,208,283.75,202.5,290.25
	S197,343,197,343L239.341,332.988z"/>
<path style="fill:#F5A569;" d="M192,144c-5.812,0-100.244-16.881-151.493-26.12C14.908,157.736,0,205.113,0,256
	c0,70.914,28.844,135.083,75.426,181.443L208,368C208,368,200,144,192,144z"/>
<path style="fill:#E39363;" d="M75.426,437.443L208,368c0,0-1.763-49.372-4.462-101.756c0,0-9.038,0.756-11.038,14.756
	c-2.5,17.502-2.519,75.368-19.5,69c-16-6-39-134-55.667-126c-10.553,5.066-4.833,73-25.833,60
	c-22.503-13.93-19.5,65.333-36.833,69.333c-6.997,1.615-23.991-6.985-41.769-17.112C25.638,374.833,47.257,409.409,75.426,437.443z"
	/>
<path style="fill:#BE6E5A;" d="M163.5,377c-20.064-6.472-34.864-4.363-42.5,9c-4,7-2,21-26,21c-7.21,0-28-1.5-33.67,15.155
	c6.263,7.331,12.923,14.304,19.965,20.884C81.294,443.039,100,422,144,408c65.134-20.725,64-40,64-40S179,382,163.5,377z"/>
<path style="fill:#FFC896;" d="M192,144c-5.812,0-100.244-16.881-151.493-26.12c-11.13,17.329-20.093,36.147-26.835,55.99
	C56,155,65,184,92.333,186.667c12.275,1.198,21.742-17.608,36.333-16.667c10.333,0.667,19.448,39.806,29.833,38
	c7.667-1.333,10.75-24.5,19.5-25c8.32-0.475,10,12.333,20.935,8.843C196.764,163.938,194.383,144,192,144z"/>
<g style="opacity:0.5;">
	<circle style="fill:#FFFFFF;" cx="361.33" cy="66" r="6"/>
</g>
<g style="opacity:0.5;">
	<circle style="fill:#FFFFFF;" cx="212.67" cy="63.33" r="6"/>
</g>
<g style="opacity:0.5;">
	<circle style="fill:#FFFFFF;" cx="304" cy="97.33" r="6"/>
</g>
<g style="opacity:0.5;">
	<circle style="fill:#FFFFFF;" cx="388" cy="136.67" r="6"/>
</g>
<g style="opacity:0.15;">
	<circle style="fill:#FFFFFF;" cx="294" cy="56" r="6"/>
</g>
<g style="opacity:0.15;">
	<circle style="fill:#FFFFFF;" cx="244" cy="34.667" r="6"/>
</g>
<g style="opacity:0.15;">
	<circle style="fill:#FFFFFF;" cx="152" cy="67.33" r="6"/>
</g>
<g style="opacity:0.15;">
	<circle style="fill:#FFFFFF;" cx="429.33" cy="124.67" r="6"/>
</g>
<g style="opacity:0.15;">
	<circle style="fill:#FFFFFF;" cx="253.33" cy="103.33" r="6"/>
</g>
<g>
</g>
<g>
</g>
<g>
</g>
<g>
</g>
<g>
</g>
<g>
</g>
<g>
</g>
<g>
</g>
<g>
</g>
<g>
</g>
<g>
</g>
<g>
</g>
<g>
</g>
<g>
</g>
<g>
</g>
</svg>
