<?xml version="1.0" encoding="iso-8859-1"?>
<!-- Generator: Adobe Illustrator 19.0.0, SVG Export Plug-In . SVG Version: 6.00 Build 0)  -->
<svg version="1.1" id="Layer_1" xmlns="http://www.w3.org/2000/svg" xmlns:xlink="http://www.w3.org/1999/xlink" x="0px" y="0px"
	 viewBox="0 0 512 512" style="enable-background:new 0 0 512 512;" xml:space="preserve">
<circle style="fill:#FFE196;" cx="256" cy="256" r="256"/>
<path style="fill:#FAC07D;" d="M512,256c0-33.023-6.322-64.551-17.708-93.533c-9.164,3.292-15.98,7.689-15.292,13.533
	c2,17-33,14-33,14s-15.333-14.667-34-10c-5.821,1.455-5,30-5,37s-40,12-47,8s-17-55-16-62s-42-14-50-14.5
	c-14.532-0.908-52,38.5-52,38.5s-15,0.5-25.5-22.5c-2.236-4.899-34-3-42.5,2c-6.095,3.585-6,49.5-6,49.5s-29.478,9.97-39-18
	c-8-23.5-18.5-22-27.667-30c-3.106-2.711-5.667-32.667-8.667-36.667s-21.333-0.667-27.333,1.333C56.743,135.53,31,195,27,199
	c-2.395,2.395-12.654,1.204-20.52-0.136C2.288,217.244,0,236.35,0,256c0,22.827,3.028,44.938,8.634,66h494.732
	C508.972,300.938,512,278.827,512,256z"/>
<path style="fill:#DC7E65;" d="M5.578,309.225l499.065,7.708C509.415,297.397,512,277.005,512,256c0-1.094-0.069-2.172-0.083-3.263
	C505.121,243.893,497,232.239,497,227c0-9-13-13-19-13s-12-21-14-32s-7-4-19-4s-21,76.333-28.333,74.333S389.667,194,387,189
	c-1.908-3.578-6.711-1.511-11.003,1.047C377.928,185.198,378,179.24,378,177c0-4-55-7-65-9s-17,76-27,75s-2-50,0-57s-13-7-16-12
	s3-44,3-44s-35-5-43-2s15,108,6,111s-11-10-13-15s-25-3-29-3s4,28-6,27s-7-31-8-38s-17-5-24-8s-8-38-8-57c0-8.246-9-11-16-11
	s-6.5,38.5-6.5,44.5S119,182,113,184s-3,72-8,72s-15-38-19-44s-23,1-31,6s-9,35-16,34c-3.338-0.477-21.914,1.701-38.99,4.398
	C0.038,274.514,1.972,292.177,5.578,309.225z M337,205c5-11,19-8,30-8c1.305,0,2.431-0.256,3.444-0.66
	C370.224,208.572,381.368,249,377,249c-5,0-39-9-46-12S332,216,337,205z"/>
<g>
	<path style="fill:#D7645A;" d="M88.5,280c-0.465-10.5-1.861-40-9.772-40s-43.743-2.5-46.535-0.5S18.697,281,21.955,282
		S88.5,280,88.5,280z"/>
	<path style="fill:#D7645A;" d="M136,288c-8-16-8-32,0-32s32-8,32-8s-8-32,0-32s25-4,27-1s5.94,64.401,13,64
		c29.333-1.667,27.167-14.5,26.667-23s115-26.5,118-24S365,267,371,269.5s34.74-6.617,38-13.5c6-12.667,9.333-16.667,22-14.5
		c8.262,1.413,41,7.5,43,10.5s4,36,4,36H136z"/>
</g>
<path style="fill:#F5A064;" d="M414.608,270.548v-3.467c4.644,0,8.421-3.778,8.421-8.421v-6.893c0-1.163-0.942-2.105-2.105-2.105
	c-1.164,0-2.105,0.943-2.105,2.105v6.893c0,2.322-1.889,4.211-4.211,4.211v-20.48c0-1.163-0.942-2.105-2.105-2.105
	c-1.164,0-2.105,0.943-2.105,2.105v27.721c-29.561-3.094-55.991-6.458-68.398-8.112c-11.512-1.535-41.288,1.054-75.304,4.714v-3.891
	c5.986,0,10.854-4.869,10.854-10.854v-8.885c0-1.499-1.214-2.714-2.714-2.714s-2.714,1.215-2.714,2.714v8.885
	c0,2.993-2.435,5.427-5.427,5.427v-26.397c0-1.499-1.214-2.714-2.714-2.714s-2.714,1.215-2.714,2.714v36.304
	c-27.615,3.02-57.473,6.623-82.366,9.239v-7.19c5.601,0,10.155-4.556,10.155-10.155v-6.886c0-1.402-1.135-2.539-2.539-2.539
	s-2.539,1.137-2.539,2.539v6.886c0,2.8-2.279,5.078-5.078,5.078v-29.736c0-1.402-1.136-2.539-2.539-2.539s-2.539,1.137-2.539,2.539
	v34.813c-2.799,0-5.078-2.277-5.078-5.078v-24.658c0-1.402-1.136-2.539-2.539-2.539s-2.539,1.137-2.539,2.539v24.658
	c0,5.6,4.555,10.155,10.155,10.155v2.639c-20.966,2.145-37.816,3.465-45.825,2.931c-12.117-0.808-29.361-3.429-55.892-3.569v-25.79
	c0-1.163-0.942-2.105-2.105-2.105c-1.164,0-2.105,0.943-2.105,2.105v25.789c-1.323,0.006-2.672,0.02-4.039,0.039v-15.079
	c0-1.163-0.942-2.105-2.105-2.105c-1.164,0-2.105,0.943-2.105,2.105v15.159c-16.217,0.382-35.434,1.71-58.395,4.717
	C13.945,410.789,123.144,512,256,512c134.419,0,244.562-103.622,255.097-235.33C486.425,277.094,448.799,274.06,414.608,270.548z"/>
<path style="fill:#EB8E5F;" d="M408,308.667c-23.159,5.096-45.55,8.142-65.447,9.362v-17.944c8.29,0,15.032-6.744,15.032-15.032
	V274.86c0-2.075-1.681-3.758-3.758-3.758s-3.758,1.683-3.758,3.758v10.193c0,4.145-3.373,7.516-7.516,7.516v-44.016
	c0-2.075-1.681-3.758-3.758-3.758s-3.758,1.683-3.758,3.758v51.532c-4.143,0-7.516-3.371-7.516-7.516v-36.5
	c0-2.075-1.681-3.758-3.758-3.758s-3.758,1.683-3.758,3.758v36.5c0,8.289,6.742,15.032,15.032,15.032v10.808
	C293.207,320.051,264.244,313.17,266,300c1.025-7.688-4.328-15.508-118.273,1.035v-50.952c0-1.891-1.532-3.424-3.424-3.424
	s-3.424,1.533-3.424,3.424v33.311c-3.775,0-6.848-3.071-6.848-6.849v-11.212c0-1.891-1.532-3.424-3.424-3.424
	s-3.424,1.533-3.424,3.424v11.212c0,7.552,6.143,13.697,13.697,13.697v11.798c-1.394,0.206-2.787,0.412-4.212,0.626
	c-20.6,3.085-80.439,33.418-119.689,45.017C53.859,443.767,146.935,512,256,512c120.494,0,221.485-83.27,248.717-195.387
	C477,301,430.648,303.683,408,308.667z"/>
<path style="fill:#DC7E65;" d="M492.109,354.845C464.733,344.791,438.845,336,432,336c-16,0-96,48-104,48s-24-16-16-24
	c5.657-5.657-5.79-23.935-22-31.5c-15-7-106.333,27.167-122,23.5c-7.79-1.823-8-16-24-16c-13.833,0-81.412,29.853-114.993,37.952
	C71.678,455.916,157.202,512,256,512C362.331,512,453.439,447.136,492.109,354.845z"/>
<path style="fill:#D7645A;" d="M256,512c89.025,0,167.407-45.465,213.274-114.42C449.903,387.044,429.696,376.831,421,375
	c-19-4-77.667,29.667-91.667,29.667c-5.313,0-13.505-7.68-22.1-17.429c-2.465-2.796-17.261,35.767-19.733,32.763
	c-4.56-5.54,3.264-52.737-0.758-57.706c-6.233-7.7-11.38-13.717-14.075-14.961C267.53,344.963,199.333,360,193,362
	c-7.143,2.256-32.04,4.214-54,5c-3.564,0.128-8.294,34.87-11,35c-4.594,0.22-16.233-35.271-17-35
	c-10.566,3.729-44.691,18.659-69.013,29.428C87.746,466.022,166.484,512,256,512z"/>
<g>
	<path style="fill:#CD554F;" d="M161.019,493.785c-2.763-19.698-7.233-49.992-9.019-53.118c-2.667-4.667-14.667,4-18,6
		S112,392,111,367c-10.566,3.729-44.691,18.659-69.013,29.428C70.588,439.926,112.072,474.199,161.019,493.785z"/>
	<path style="fill:#CD554F;" d="M393.333,444.667c-6.222,1.131,13.419-47.54,20.346-69.681
		c-23.643,2.822-71.824,29.681-84.346,29.681C320.667,430,311.333,456,308,446s-8,1.333-17.333,18s-13.852,23.972-18.417,23
		c-5.083-1.083,4.987-52.716-0.917-55.667c-3.333-1.666-7.567-1.908-7.667-8.124c-0.334-20.876,9-75.876,9-75.876
		C267.53,344.962,199.333,360,193,362c0,0,17.095,108.273,23.632,146.864c6.095,0.942,12.261,1.667,18.485,2.182
		C242.014,511.609,248.958,512,256,512c59.654,0,114.469-20.486,157.985-54.703c3.348-12.964,4.348-21.964,2.682-25.297
		C413.67,426.007,400.667,443.333,393.333,444.667z"/>
</g>
<g>
</g>
<g>
</g>
<g>
</g>
<g>
</g>
<g>
</g>
<g>
</g>
<g>
</g>
<g>
</g>
<g>
</g>
<g>
</g>
<g>
</g>
<g>
</g>
<g>
</g>
<g>
</g>
<g>
</g>
</svg>
