<?xml version="1.0" encoding="iso-8859-1"?>
<!-- Generator: Adobe Illustrator 19.0.0, SVG Export Plug-In . SVG Version: 6.00 Build 0)  -->
<svg version="1.1" id="Layer_1" xmlns="http://www.w3.org/2000/svg" xmlns:xlink="http://www.w3.org/1999/xlink" x="0px" y="0px"
	 viewBox="0 0 512 512" style="enable-background:new 0 0 512 512;" xml:space="preserve">
<circle style="fill:#A06482;" cx="256" cy="256" r="256"/>
<circle style="fill:#C67682;" cx="264" cy="208" r="172.87"/>
<circle style="fill:#EB8782;" cx="264" cy="208" r="125.44"/>
<circle style="fill:#EBC3A0;" cx="264" cy="208" r="85.15"/>
<circle style="fill:#EB737D;" cx="264" cy="208" r="56"/>
<path style="fill:#EB506E;" d="M384,192c-16,0-40-24-48-24s-64,40-72,40s-96-56-104-56s-80,48-88,48c-4.583,0-38.033,0-65.782,0
	C2.192,218.032,0,236.755,0,256c0,27.948,4.541,54.822,12.82,80h486.36c8.279-25.178,12.82-52.052,12.82-80
	c0-48.694-13.601-94.209-37.202-132.964C440,152,392,192,384,192z"/>
<path style="fill:#BA4D61;" d="M4.857,305.667C9.762,330.604,18.285,354.232,29.861,376h452.278
	c9.838-18.5,17.454-38.35,22.535-59.201C485.984,308.71,436.879,288,424,288c-16,0-96,32-104,32s-104-48-112-48s-72,32-80,32
	s-56-24-64-24C58.275,280,23.962,296.346,4.857,305.667z"/>
<path style="fill:#894953;" d="M445.333,324C437,323,285,358.667,274.667,358.667c-13.92,0-103.667-29.333-112-29.333
	c-12.124,0-86.011,18.714-139.854,32.273C63.04,450.285,152.284,512,256,512c108.706,0,201.521-67.788,238.649-163.371
	C473.597,337.079,449.934,324.552,445.333,324z"/>
<path style="fill:#5F4648;" d="M412.259,392c-3.629-3.696-8.67-6-14.259-6c-4.923,0-9.372,1.847-12.857,4.797v-17.083
	c12.606,0,22.857-10.254,22.857-22.857v-28.571c0-3.156-2.556-5.714-5.714-5.714s-5.714,2.559-5.714,5.714v28.571
	c0,6.303-5.128,11.429-11.428,11.429v-68.571c0-3.156-2.556-5.714-5.714-5.714c-3.159,0-5.714,2.559-5.714,5.714v90.991
	c-3.857-2.646-8.517-4.206-13.548-4.206c-8.658,0-16.178,4.626-20.4,11.5h-42.341c-3.629-3.696-8.67-6-14.259-6
	s-10.63,2.304-14.259,6H224.89v-99.852c0-2.291-1.855-4.148-4.148-4.148s-4.148,1.857-4.148,4.148v70.519
	c-4.574,0-8.296-3.721-8.296-8.296v-53.926c0-2.291-1.855-4.148-4.148-4.148c-2.292,0-4.148,1.857-4.148,4.148v53.926
	c0,9.149,7.441,16.593,16.593,16.593V392h-49.833c-3.629-3.696-8.67-6-14.259-6c-2.278,0-4.432,0.462-6.472,1.164
	c-4.307-4.107-10.107-6.664-16.528-6.664c-5.685,0-10.839,2.059-14.951,5.363v-43.237c13.11,0,23.772-10.664,23.772-23.772v-89.146
	c0-3.282-2.658-5.943-5.943-5.943c-3.285,0-5.943,2.661-5.943,5.943v89.146c0,6.555-5.333,11.886-11.886,11.886V217.822
	c0-3.282-2.658-5.943-5.943-5.943s-5.943,2.661-5.943,5.943v101.032c-6.553,0-11.886-5.331-11.886-11.886v-47.544
	c0-3.282-2.658-5.943-5.943-5.943s-5.943,2.661-5.943,5.943v47.544c0,13.108,10.662,23.772,23.772,23.772V392H39.148
	C84.441,464.065,164.601,512,256,512s171.559-47.935,216.852-120H412.259z"/>
<g style="opacity:0.7;">
	<circle style="fill:#FFFFFF;" cx="126.67" cy="62.67" r="5"/>
</g>
<g style="opacity:0.7;">
	<circle style="fill:#FFFFFF;" cx="229.33" cy="20" r="5"/>
</g>
<g style="opacity:0.7;">
	<circle style="fill:#FFFFFF;" cx="325.67" cy="70" r="5"/>
</g>
<g style="opacity:0.7;">
	<circle style="fill:#FFFFFF;" cx="392" cy="68" r="5"/>
</g>
<g style="opacity:0.3;">
	<circle style="fill:#FFFFFF;" cx="170" cy="41" r="5"/>
</g>
<g style="opacity:0.3;">
	<circle style="fill:#FFFFFF;" cx="207.67" cy="69.33" r="5"/>
</g>
<g style="opacity:0.3;">
	<circle style="fill:#FFFFFF;" cx="265.33" cy="49" r="5"/>
</g>
<g style="opacity:0.3;">
	<circle style="fill:#FFFFFF;" cx="361.33" cy="48.667" r="5"/>
</g>
<g style="opacity:0.3;">
	<circle style="fill:#FFFFFF;" cx="110" cy="99" r="5"/>
</g>
<g style="opacity:0.3;">
	<circle style="fill:#FFFFFF;" cx="301" cy="22.667" r="5"/>
</g>
<g>
</g>
<g>
</g>
<g>
</g>
<g>
</g>
<g>
</g>
<g>
</g>
<g>
</g>
<g>
</g>
<g>
</g>
<g>
</g>
<g>
</g>
<g>
</g>
<g>
</g>
<g>
</g>
<g>
</g>
</svg>
