<?xml version="1.0" encoding="iso-8859-1"?>
<!-- Generator: Adobe Illustrator 19.0.0, SVG Export Plug-In . SVG Version: 6.00 Build 0)  -->
<svg version="1.1" id="Layer_1" xmlns="http://www.w3.org/2000/svg" xmlns:xlink="http://www.w3.org/1999/xlink" x="0px" y="0px"
	 viewBox="0 0 512 512" style="enable-background:new 0 0 512 512;" xml:space="preserve">
<circle style="fill:#A7D9FF;" cx="256" cy="256" r="256"/>
<circle style="fill:#C2DDFF;" cx="256" cy="272" r="176"/>
<circle style="fill:#DCE1FF;" cx="256" cy="272" r="96"/>
<circle style="fill:#FFFFFF;" cx="256" cy="272" r="48"/>
<path style="fill:#A5C3EB;" d="M491.62,356.226C454.825,349.468,379.986,336,368,336c-16,0-88,24-96,24s-32-16-40-16S80,384,80,384
	h397.667C482.841,375.059,487.539,365.809,491.62,356.226z"/>
<path style="fill:#E6C35A;" d="M34.333,384C78.603,460.497,161.261,512,256,512s177.397-51.503,221.667-128H34.333z"/>
<path style="fill:#E6AA55;" d="M461.796,408H50.204C96.824,471.039,171.575,512,256,512S415.176,471.039,461.796,408z"/>
<path style="fill:#826946;" d="M258,266c-3.313,0-6,2.688-6,6v16c0,14.336-11.664,26-26,26h-10v-58c0-3.312-2.688-6-6-6
	s-6,2.688-6,6v72.894c-6.967-2.485-12-9.083-12-16.894v-40c0-3.312-2.688-6-6-6s-6,2.688-6,6v18h-18c-5.516,0-10-4.484-10-10v-8
	c0-3.312-2.688-6-6-6s-6,2.688-6,6v8c0,12.133,9.867,22,22,22h18v10c0,14.488,10.325,26.605,24,29.394V416c0,3.313,2.688,6,6,6
	s6-2.687,6-6v-90h10c20.953,0,38-17.047,38-38v-16C264,268.688,261.313,266,258,266z"/>
<path style="fill:#6EAA64;" d="M328,248c0-8.837-7.164-16-16-16h-8c0-8.837-7.164-16-16-16h-16c0-8.837-7.164-16-16-16H128
	c-8.836,0-16,7.163-16,16H96c-8.836,0-16,7.163-16,16c-8.836,0-16,7.163-16,16c0,8.836,7.164,16,16,16c0,8.836,7.164,16,16,16h96
	c8.836,0,16-7.164,16-16h32c0,8.836,7.164,16,16,16h72c8.836,0,16-7.164,16-16C344,255.163,336.836,248,328,248z"/>
<path style="fill:#73BE6E;" d="M328,248c0-8.837-7.164-16-16-16h-8c0-8.837-7.164-16-16-16h-16c0-8.837-7.164-16-16-16h-56
	c8.836,0,16,7.163,16,16h-32c-8.837,0-16,7.163-16,16s7.163,16,16,16h-24c-8.837,0-16,7.163-16,16s7.163,16,16,16h32
	c8.837,0,16-7.163,16-16s-7.163-16-16-16h24c8.837,0,16-7.163,16-16h16v0.856c0,8.364,6.78,15.144,15.144,15.144
	c7.97,0,15.358,5.446,16.637,13.313C281.412,271.337,273.717,280,264,280h63.145c7.97,0,15.357-5.447,16.637-13.314
	C345.411,256.662,337.717,248,328,248z"/>
<path style="fill:#D29155;" d="M424.991,448H87.009c45.067,39.772,104.146,64,168.991,64S379.923,487.772,424.991,448z"/>
<g>
	<circle style="fill:#E6C35A;" cx="269" cy="472.5" r="6.667"/>
	<circle style="fill:#E6C35A;" cx="182.67" cy="478.5" r="6.667"/>
	<circle style="fill:#E6C35A;" cx="351" cy="470" r="6.667"/>
</g>
<g>
	<circle style="fill:#D29155;" cx="300" cy="421.33" r="5.167"/>
	<circle style="fill:#D29155;" cx="398.5" cy="424" r="5.167"/>
	<circle style="fill:#D29155;" cx="181.5" cy="435.5" r="5.167"/>
</g>
<g>
	<circle style="fill:#E6C35A;" cx="353.5" cy="433.33" r="5.167"/>
	<circle style="fill:#E6C35A;" cx="247.17" cy="431" r="5.167"/>
	<circle style="fill:#E6C35A;" cx="141.5" cy="425.5" r="5.167"/>
</g>
<g>
	<circle style="fill:#E6AA55;" cx="224.17" cy="468.5" r="6.667"/>
	<circle style="fill:#E6AA55;" cx="306" cy="487" r="6.667"/>
</g>
<g>
</g>
<g>
</g>
<g>
</g>
<g>
</g>
<g>
</g>
<g>
</g>
<g>
</g>
<g>
</g>
<g>
</g>
<g>
</g>
<g>
</g>
<g>
</g>
<g>
</g>
<g>
</g>
<g>
</g>
</svg>
