<?xml version="1.0" encoding="iso-8859-1"?>
<!-- Generator: Adobe Illustrator 19.0.0, SVG Export Plug-In . SVG Version: 6.00 Build 0)  -->
<svg version="1.1" id="Layer_1" xmlns="http://www.w3.org/2000/svg" xmlns:xlink="http://www.w3.org/1999/xlink" x="0px" y="0px"
	 viewBox="0 0 512 512" style="enable-background:new 0 0 512 512;" xml:space="preserve">
<circle style="fill:#FFFABE;" cx="256" cy="256" r="256"/>
<path style="fill:#FCEB9B;" d="M224,136c0,0,96-32,120-32s128,40,128,40l-160,24L224,136z"/>
<path style="fill:#E8E891;" d="M36.979,123.398c-11.376,18.75-20.35,39.103-26.642,60.602H408l-32-24c0,0-176-64-192-64
	C160,96,104,104,36.979,123.398z"/>
<path style="fill:#E6E1B4;" d="M0,256c0,13.61,1.085,26.964,3.131,40h505.738c2.046-13.036,3.131-26.39,3.131-40
	c0-25.009-3.651-49.152-10.337-72H10.337C3.651,206.848,0,230.991,0,256z"/>
<path style="fill:#D2D764;" d="M234.667,172c0,0,208.333,27.333,208.333,52c0,46.667-267,37.333-327,48
	c-52.576,9.347-74.667,46.667-32,69.333c61.552,32.699,215.695,140.061,246.602,159.59C435.59,468.984,512,371.43,512,256
	c0-46.609-12.518-90.269-34.283-127.913C385.506,135.022,234.667,172,234.667,172z"/>
<path style="fill:#BECF64;" d="M330.602,500.923C435.59,468.984,512,371.43,512,256c0-3.242-0.203-6.433-0.323-9.645
	C476.069,281.363,432,312,248,312c-93.05,0-128,8-123.398,53.074C196.672,409.579,305.21,484.878,330.602,500.923z"/>
<path style="fill:#FFB764;" d="M481.281,134.731c-40.948,5.602-105.089,17.614-213.307,42.041
	C293.373,180.613,307.333,185,368.333,189l126.345-25.243C490.803,153.761,486.326,144.078,481.281,134.731z"/>
<path style="fill:#FFE664;" d="M489.693,151.791C422.333,158.667,313.5,184,313.5,184s75.833,7.667,102.75,14.25l83.187-21.195
	C496.629,168.418,493.365,159.999,489.693,151.791z"/>
<path style="fill:#E69664;" d="M498.508,174.042c-28.026,7.911-84.709,24.02-82.258,24.208c3.25,0.25,27.083,7.25,34.417,11.75
	c2.474,1.518,42.74-0.303,56.806-1.583C505.252,196.66,502.278,185.172,498.508,174.042z"/>
<path style="fill:#D2E173;" d="M123,133c-19.771,0-62.45,7.329-98.812,14.35C8.7,180.337,0,217.146,0,256
	c0,11.61,0.847,23.016,2.344,34.216L10.667,292C17.333,272,28,252,128,252c184,0,300-12,278.667-32C385.333,200,153.667,133,123,133
	z"/>
<path style="fill:#BECF64;" d="M1.847,225.521C0.656,235.519,0,245.681,0,256c0,6.571,0.333,13.06,0.839,19.5h18.363
	C30.495,262.296,56.252,252,128,252c22.187,0,43.357-0.179,63.445-0.521c64.655-2.881,133.005-6.752,169.714-25.15L1.847,225.521z"
	/>
<g>
	<path style="fill:#E69664;" d="M190.992,398c-3.016,0-5.609-2.266-5.953-5.328c-8.852-78.484,1.734-120.875,3.945-128.578
		c0.914-3.18,4.219-5.055,7.422-4.109c3.188,0.914,5.023,4.234,4.109,7.422c-2.102,7.32-12.148,47.688-3.555,123.922
		c0.375,3.289-1.992,6.266-5.289,6.633C191.445,397.984,191.219,398,190.992,398z"/>
	<path style="fill:#E69664;" d="M223.992,397.5c-2.758,0-5.25-1.922-5.859-4.727c-11.203-51.703-7.297-124.055-7.125-127.109
		c0.188-3.32,2.969-5.82,6.328-5.656c3.313,0.188,5.844,3.023,5.656,6.328c-0.039,0.734-3.984,73.797,6.875,123.891
		c0.695,3.242-1.359,6.438-4.594,7.141C224.844,397.453,224.414,397.5,223.992,397.5z"/>
	<path style="fill:#E69664;" d="M253.992,397.5c-2.914,0-5.477-2.133-5.922-5.102c-7.945-52.641-13.008-126.75-13.055-127.492
		c-0.227-3.305,2.273-6.172,5.578-6.391c3.32-0.102,6.172,2.273,6.391,5.578c0.055,0.742,5.078,74.367,12.945,126.508
		c0.5,3.281-1.758,6.336-5.031,6.828C254.594,397.477,254.289,397.5,253.992,397.5z"/>
	<path style="fill:#E69664;" d="M290.656,397.336c-2.664,0-5.102-1.789-5.805-4.5c-14.563-56.281-26.156-127.164-26.273-127.875
		c-0.531-3.266,1.688-6.352,4.961-6.883c3.234-0.547,6.359,1.688,6.883,4.961c0.117,0.703,11.625,71.047,26.055,126.797
		c0.828,3.203-1.102,6.477-4.313,7.313C291.664,397.273,291.156,397.336,290.656,397.336z"/>
	<path style="fill:#E69664;" d="M339.336,414c-2.336,0-4.555-1.367-5.523-3.656c-23.844-56.125-51.602-145.008-51.875-145.898
		c-0.984-3.164,0.781-6.523,3.945-7.508c3.188-0.992,6.531,0.789,7.508,3.945c0.281,0.883,27.859,89.203,51.469,144.773
		c1.297,3.047-0.125,6.57-3.18,7.867C340.914,413.844,340.117,414,339.336,414z"/>
	<path style="fill:#E69664;" d="M391.344,432.664c-1.922,0-3.805-0.922-4.969-2.625c-33.328-48.984-78.063-161.719-79.953-166.5
		c-1.219-3.078,0.289-6.563,3.375-7.781c3.07-1.227,6.563,0.289,7.781,3.375c0.461,1.156,46.141,116.273,78.719,164.156
		c1.867,2.742,1.156,6.469-1.586,8.336C393.68,432.328,392.5,432.664,391.344,432.664z"/>
	<path style="fill:#E69664;" d="M159.992,397c-3.016,0-5.609-2.266-5.953-5.328c-5.336-47.281-1.516-91.422,11.039-127.641
		c1.086-3.125,4.477-4.789,7.641-3.703c3.125,1.086,4.789,4.508,3.703,7.641c-11.977,34.531-15.594,76.844-10.461,122.359
		c0.375,3.289-1.992,6.266-5.289,6.633C160.445,396.984,160.219,397,159.992,397z"/>
	<path style="fill:#E69664;" d="M129.328,387.336c-3.102,0-5.734-2.391-5.977-5.539c-4.094-53.258,2.695-93.188,20.203-118.695
		c1.867-2.711,5.594-3.43,8.344-1.547c2.727,1.875,3.422,5.609,1.547,8.344c-15.914,23.188-22.008,60.523-18.125,110.977
		c0.25,3.305-2.219,6.188-5.523,6.445C129.641,387.328,129.484,387.336,129.328,387.336z"/>
	<path style="fill:#E69664;" d="M101.992,367.336c-2.773,0-5.266-1.938-5.859-4.758c-9.422-44.445,6.227-81.789,25.906-99.086
		c2.492-2.18,6.281-1.953,8.469,0.547c2.188,2.492,1.945,6.281-0.547,8.469c-12.727,11.188-31.703,42.219-22.094,87.586
		c0.688,3.242-1.383,6.422-4.625,7.109C102.828,367.297,102.406,367.336,101.992,367.336z"/>
	<path style="fill:#E69664;" d="M72.992,339.664c-3.133,0-5.766-2.43-5.977-5.602c-2.508-37.883,24.898-61.938,26.07-62.945
		c2.508-2.156,6.281-1.875,8.445,0.625s1.891,6.289-0.609,8.461c-0.234,0.211-24.039,21.289-21.938,53.063
		c0.219,3.313-2.281,6.164-5.586,6.383C73.258,339.656,73.125,339.664,72.992,339.664z"/>
</g>
<path style="fill:#AAC864;" d="M204,361.333c-83.143-14.212-157.744-39.917-201.583-70.544C19.4,415.707,126.422,512,256,512
	c71.023,0,135.277-28.938,181.655-75.647C401.374,406.393,314.959,380.3,204,361.333z"/>
<g>
	<path style="fill:#88BE64;" d="M85.622,323.708c-17.352,3.838-46.045,10.621-71.321,16.668
		c20.596,58.997,62.153,108.119,115.774,138.483C186.5,464,175.124,445.495,192.5,425c19.5-23,47.7-26.831,55-35.5
		c8-9.5-5-19.5-21.112-24.169c-7.351-1.363-14.799-2.7-22.388-3.998C155.963,353.122,116.65,339.814,85.622,323.708z"/>
	<path style="fill:#88BE64;" d="M391.605,410.322c-48.04-15.508-103.862-32.773-102.198-28.688
		c2.907,7.134,5.205,13.235-26.741,30.366c-34.5,18.5,9.333,71.333,53.746,92.756c46.723-11.314,88.46-35.387,121.242-68.403
		C426.679,427.289,411.048,418.587,391.605,410.322z"/>
</g>
<g>
	<path style="fill:#FFE664;" d="M416.789,244.625c-1.867,2.742-1.156,6.477,1.586,8.336c0.447,0.302,35.453,23.929,89.166,50.477
		c0.769-4.102,1.441-8.236,2.012-12.404c-50.974-25.447-83.996-47.705-84.428-47.994
		C422.375,241.164,418.656,241.891,416.789,244.625z"/>
	<path style="fill:#FFE664;" d="M396.273,248c-2.203,2.477-1.992,6.266,0.477,8.477c0.502,0.443,42.579,37.703,103.596,76.079
		c1.238-3.956,2.379-7.954,3.428-11.99c-58.498-37.123-98.543-72.612-99.024-73.042C402.273,245.313,398.492,245.539,396.273,248z"
		/>
	<path style="fill:#FFE664;" d="M511.984,255.357c-0.01-4.145-0.107-8.268-0.313-12.364c-23.647-5.256-41.159-9.968-50.308-12.573
		l49.687,4.305c-0.336-4.081-0.77-8.131-1.294-12.155L491.62,221h17.937c-0.552-4.032-1.201-8.03-1.938-12
		c0,0-53.494,0.375-57.119,1c0,0,19,11.75-6.284,27.68c-0.955-0.41-1.485-0.642-1.536-0.665c-3.023-1.336-6.57,0.016-7.914,3.055
		c-1.344,3.023,0.023,6.57,3.055,7.914c0.399,0.18,29.006,12.763,73.355,27.657c0.313-4.123,0.528-8.271,0.643-12.447
		c-24.16-8.194-43.299-15.58-55.264-20.402C465.992,245.02,485.472,249.54,511.984,255.357z"/>
</g>
<g>
	<path style="fill:#E69664;" d="M450.33,422.548c-53.59-56.533-108.044-165.071-108.626-166.228
		c-1.477-2.961-5.086-4.172-8.047-2.688c-2.961,1.477-4.172,5.078-2.688,8.047c2.399,4.805,56.339,112.32,111.316,169.816
		C445.036,428.577,447.717,425.594,450.33,422.548z"/>
	<path style="fill:#E69664;" d="M492.604,353.817C430.967,305.7,386.329,252.478,385.86,251.906
		c-2.125-2.547-5.914-2.891-8.453-0.766s-2.891,5.906-0.766,8.453c0.482,0.579,47.042,56.071,110.971,105.5
		C489.363,361.382,491.028,357.624,492.604,353.817z"/>
	<path style="fill:#E69664;" d="M363.641,253.984c-1.836-2.734-5.555-3.484-8.328-1.625c-2.75,1.844-3.477,5.578-1.625,8.328
		c2.546,3.79,60.327,89.276,115.417,137.157c2.245-3.366,4.414-6.785,6.501-10.261C422.005,340.344,364.254,254.893,363.641,253.984
		z"/>
</g>
<g>
	<rect x="289.41" y="381.63" style="fill:#5F4648;" width="5.741" height="31.577"/>
	<rect x="300.33" y="389.24" style="fill:#5F4648;" width="7.813" height="42.97"/>
	<rect x="312.44" y="397.31" style="fill:#5F4648;" width="9.527" height="52.4"/>
	<rect x="325.84" y="447.75" style="fill:#5F4648;" width="11.634" height="28.461"/>
	<path style="fill:#5F4648;" d="M343.333,449.625v47.074c4.737-1.719,9.398-3.593,14-5.579v-41.495H343.333z"/>
	<path style="fill:#5F4648;" d="M403.101,457.998c-0.059,0.04-0.111,0.089-0.17,0.129c-0.744,0.042-1.48,0.113-2.234,0.113
		c-1.21,0-2.351-0.249-3.534-0.356v11.658c4.446-2.945,8.803-6.009,13.048-9.218v-3.383
		C407.913,457.517,405.539,457.847,403.101,457.998z"/>
</g>
<g>
	<path style="fill:#FFE664;" d="M430.886,413.042c-1.835-2.063-3.314-4.439-4.39-7.022c-0.666,5.776-2.96,11.034-6.475,15.31
		c0.154,1.41,0.247,2.839,0.247,4.291c0,13.468-6.812,25.333-17.167,32.376c2.438-0.15,4.813-0.48,7.11-1.058
		c2.981-0.749,5.785-1.869,8.45-3.257c3.077-2.534,6.087-5.145,9.041-7.817c-1.926-4.165-3.075-8.76-3.075-13.65
		C424.626,425.042,426.966,418.43,430.886,413.042z"/>
	<path style="fill:#FFE664;" d="M387.783,334.301c17.952,0.074,32.485,14.636,32.485,32.605c0,5.071-1.257,9.813-3.322,14.093
		c3.624,3.248,6.316,7.42,7.996,12.077c1.146-7.339,5.564-13.564,11.709-17.226c0.085-0.302,5.536-6.289,5.536-15.468
		c0-18.015-16.952-32.619-34.967-32.619c-8.558,0-16.232,3.388-22.013,8.795c0.004,0.007,0.008,0.015,0.012,0.022
		C386.056,335.801,386.868,334.992,387.783,334.301z"/>
	<path style="fill:#FFE664;" d="M462.734,356c-6.109,0-11.706,2.044-16.22,5.455c14.98,0.062,27.108,12.214,27.108,27.208
		c0,0.908-0.225,1.748-0.317,2.629c4.517-7.239,8.69-14.71,12.479-22.41C480.978,361.173,472.488,356,462.734,356z"/>
	<path style="fill:#FFE664;" d="M438.435,371.284c0.593-1.208,1.247-2.383,2.004-3.482
		C439.683,368.903,439.026,370.074,438.435,371.284z"/>
	<path style="fill:#FFE664;" d="M438.222,371.659c-0.5,1.063-0.883,2.187-1.245,3.319c-0.095,0.297-0.239,0.571-0.325,0.873
		C437.062,374.4,437.59,373,438.222,371.659z"/>
</g>
<path style="fill:#F5C350;" d="M446.514,361.455L446.514,361.455c-2.331,1.761-4.367,3.889-6.034,6.295
	c-0.013,0.019-0.029,0.033-0.042,0.052c-0.757,1.099-1.411,2.273-2.004,3.482c-0.063,0.13-0.151,0.244-0.213,0.375
	c-0.632,1.341-1.16,2.742-1.57,4.192c-6.145,3.662-10.564,9.887-11.709,17.226c-1.68-4.657-4.372-8.83-7.996-12.077
	c2.065-4.281,3.322-9.022,3.322-14.093c0-17.969-14.534-32.532-32.485-32.605c-0.915,0.691-1.727,1.5-2.563,2.28
	c2.415,4.754,3.906,10.054,3.906,15.751c0,5.441-1.349,10.529-3.564,15.122c6.437,5.768,10.564,14.056,10.564,23.378
	c0,7.589-2.794,14.458-7.265,19.896c0.166,1.514,0.265,3.047,0.265,4.604c0,12.979-6.012,24.436-15.261,32.14
	c6.198,5.862,14.308,9.592,23.299,10.41c1.183,0.107,2.323,0.356,3.534,0.356c0.754,0,1.491-0.071,2.234-0.113
	c0.059-0.04,0.111-0.089,0.17-0.129c10.356-7.043,17.167-18.909,17.167-32.376c0-1.452-0.093-2.881-0.247-4.291
	c3.515-4.276,5.809-9.534,6.475-15.31c1.076,2.583,2.555,4.959,4.39,7.022c-3.92,5.388-6.259,12-6.259,19.173
	c0,4.89,1.148,9.485,3.075,13.65c17.616-15.941,32.968-34.321,45.604-54.573c0.093-0.881,0.317-1.721,0.317-2.629
	C473.622,373.669,461.494,361.517,446.514,361.455z"/>
<g>
	<path style="fill:#FFE664;" d="M320.587,342.858c0.527-1.865,1.205-3.665,2.017-5.388
		C321.794,339.196,321.114,340.994,320.587,342.858z"/>
	<path style="fill:#FFE664;" d="M322.91,336.933c0.757-1.535,1.585-3.029,2.549-4.427
		C324.498,333.906,323.665,335.396,322.91,336.933z"/>
	<path style="fill:#FFE664;" d="M396.125,390.833c0-9.322-4.127-17.61-10.564-23.378c2.215-4.593,3.564-9.681,3.564-15.122
		c0-5.697-1.491-10.998-3.906-15.751c-0.004-0.007-0.008-0.015-0.012-0.022c-5.783-11.363-17.459-19.226-31.083-19.226
		c-1.413,0-2.803,0.091-4.169,0.255c-4.412-2.698-9.599-4.254-15.15-4.254c-4.673,0-9.063,1.128-12.956,3.095
		c-0.683-0.059-1.372-0.095-2.071-0.095c-6.44,0-12.234,2.584-16.493,6.749c-7.547,1.2-13.605,6.753-15.651,13.996
		c-5.145,3.066-8.629,8.628-8.629,15.053c0,4.483,1.729,8.528,4.491,11.634c-2.813,3.866-4.491,8.611-4.491,13.758
		c0,8.571,4.603,16.063,11.469,20.151c1.313,2.195,2.915,4.196,4.749,5.957c3.921,14.986,17.55,26.044,33.765,26.044
		c19.276,0,34.902-15.626,34.902-34.902c0-1.294-0.082-2.569-0.22-3.826c2.672-3.25,4.605-7.123,5.49-11.383
		c3.731,5.142,5.963,11.425,5.963,18.27c0,7.589-2.794,14.458-7.265,19.896c0.166,1.514,0.265,3.047,0.265,4.604
		c0,14.451-7.309,27.183-18.42,34.74c2.617-0.162,5.164-0.516,7.629-1.135c6.194-1.556,11.772-4.501,16.53-8.465
		c9.249-7.704,15.261-19.162,15.261-32.14c0-1.557-0.099-3.09-0.265-4.604C393.331,405.291,396.125,398.422,396.125,390.833z
		 M360.929,354.985c1.813-3.757,2.921-7.914,2.955-12.356c2.703,4.963,4.24,10.653,4.24,16.704c0,1.754-0.154,3.467-0.418,5.142
		C366.176,360.825,363.84,357.593,360.929,354.985z"/>
</g>
<path style="fill:#F5C350;" d="M375.125,397.833c0-9.322-4.127-17.61-10.564-23.378c2.215-4.593,3.564-9.681,3.564-15.122
	c0-19.05-15.226-34.521-34.169-34.965c-4.678-3.257-10.355-5.18-16.482-5.205c-1.352,1.021-2.604,2.166-3.76,3.403
	c-2.535-0.932-5.272-1.447-8.128-1.459c-2.303,1.74-4.268,3.898-5.818,6.347c-1.615-0.44-3.304-0.699-5.057-0.706
	c-3.069,2.319-5.428,5.525-6.718,9.237c-0.879-0.172-6.41,0.432-7.914,7.316c-3.781,2.253-6.341,6.341-6.341,11.062
	c0,3.294,1.271,6.267,3.301,8.549c-2.067,2.841-3.301,6.328-3.301,10.11c0,5.819,2.894,10.954,7.313,14.072
	c1.982,4.422,5.291,8.118,9.424,10.579c1.313,2.195,2.915,4.196,4.749,5.957c1.728,6.606,5.343,12.449,10.235,16.918
	c2.424,19.447,18.29,33.894,37.875,36.402c2.5,0.32,6.308,0.165,6.371,0.122c11.111-7.557,18.42-20.289,18.42-34.74
	c0-1.557-0.099-3.09-0.265-4.604C372.331,412.291,375.125,405.422,375.125,397.833z"/>
<path style="fill:#E69664;" d="M39,306c0,5.441-1.348,10.528-3.564,15.122c0.014,0.013,0.024,0.029,0.039,0.042
	c2.729-5.067,6.77-9.327,11.714-12.273c0.527-1.864,1.208-3.663,2.018-5.389c0.084-0.178,0.204-0.335,0.291-0.512
	c0.758-1.546,1.596-3.043,2.562-4.451c0.01-0.015,0.023-0.027,0.033-0.042c1.934-2.81,4.278-5.3,6.923-7.433
	C55.409,275.573,41.589,264,25,264c-9.512,0-18.03,3.877-24.296,10.053c0,0.006,0.001,0.013,0.001,0.02
	c1.094-1.076,2.212-2.132,3.438-3.058C23.406,271.094,39,286.719,39,306z"/>
<path style="fill:#D26E4B;" d="M31.726,335.865c0-5.339,1.389-10.319,3.749-14.701c-0.014-0.013-0.024-0.029-0.039-0.042
	C37.652,316.528,39,311.441,39,306c0-19.281-15.594-34.906-34.856-34.985c-1.226,0.926-2.344,1.982-3.438,3.058
	C3.367,312.186,14.329,348,31.861,379.7c0.344-8.57,3.183-16.486,7.914-22.988C34.826,351.147,31.726,343.898,31.726,335.865z"/>
<path style="fill:#5F4648;" d="M232.808,375.745c-0.196,0.011-0.391,0.03-0.59,0.03c-0.331,0-0.61-0.158-0.933-0.188v13.973h3.446
	v-14.292c-0.587,0.151-1.165,0.315-1.788,0.361C232.895,375.662,232.858,375.711,232.808,375.745z"/>
<path style="fill:#E69664;" d="M237.387,351.652c0,1.339-0.332,2.591-0.877,3.722c1.584,1.419,2.6,3.459,2.6,5.754
	c0,1.868-0.688,3.559-1.788,4.897c0.041,0.373,0.065,0.75,0.065,1.133c0,3.513-1.765,6.601-4.444,8.469
	c0.623-0.045,1.201-0.21,1.788-0.361c4.46-1.147,7.825-5.013,7.825-9.831c0-0.383-0.024-0.761-0.065-1.133
	c1.101-1.339,1.788-3.029,1.788-4.897c0-2.295-1.016-4.335-2.6-5.754c0.545-1.131,0.877-2.383,0.877-3.722
	c0-4.758-3.857-8.615-8.615-8.615c-1.429,0-2.713,0.444-3.893,1.062c0.041,0.329,0.183,0.622,0.193,0.959
	C234.271,344.056,237.387,347.416,237.387,351.652z"/>
<path style="fill:#D26E4B;" d="M232.808,375.745c0.05-0.033,0.086-0.083,0.135-0.117c2.679-1.868,4.444-4.956,4.444-8.469
	c0-0.383-0.024-0.761-0.065-1.133c1.1-1.338,1.788-3.029,1.788-4.897c0-2.295-1.016-4.335-2.6-5.754
	c0.545-1.131,0.877-2.383,0.877-3.722c0-4.236-3.116-7.596-7.145-8.317c0.003,0.112,0.064,0.206,0.064,0.318
	c0,1.681-0.417,3.253-1.101,4.672c1.989,1.782,3.264,4.342,3.264,7.223c0,2.345-0.863,4.467-2.244,6.147
	c0.051,0.467,0.082,0.941,0.082,1.422c0,4.06-1.903,7.638-4.822,10.018c1.586,1.387,3.582,2.242,5.8,2.451
	c0.323,0.03,0.602,0.188,0.933,0.188C232.417,375.774,232.612,375.756,232.808,375.745z"/>
<path style="fill:#5F4648;" d="M218.072,376.056c-0.247,0.014-0.491,0.038-0.741,0.038c-0.401,0-0.779-0.083-1.171-0.118v17.419
	h4.325v-17.732c-0.764,0.192-1.553,0.301-2.364,0.351C218.103,376.026,218.09,376.043,218.072,376.056z"/>
<path style="fill:#E69664;" d="M223.819,345.816c0,1.681-0.417,3.253-1.101,4.672c1.988,1.782,3.264,4.343,3.264,7.223
	c0,2.345-0.863,4.467-2.244,6.147c0.051,0.467,0.082,0.941,0.082,1.422c0,4.467-2.263,8.4-5.698,10.733
	c0.811-0.05,1.601-0.159,2.364-0.351c1.868-0.469,3.553-1.348,5-2.527c2.919-2.379,4.822-5.958,4.822-10.018
	c0-0.481-0.03-0.955-0.082-1.422c1.381-1.68,2.244-3.802,2.244-6.147c0-2.88-1.275-5.441-3.264-7.223
	c0.685-1.419,1.101-2.991,1.101-4.672c0-0.113-0.061-0.206-0.064-0.318c-0.01-0.338-0.153-0.63-0.193-0.959
	c-0.66-5.34-5.037-9.535-10.555-9.535c-1.867,0-3.542,0.595-5.066,1.431c0.251,0.364,0.44,0.766,0.655,1.153
	C220.023,336.422,223.819,340.582,223.819,345.816z"/>
<path style="fill:#D26E4B;" d="M218.072,376.056c0.018-0.012,0.031-0.03,0.049-0.042c3.436-2.333,5.698-6.267,5.698-10.733
	c0-0.481-0.031-0.955-0.082-1.422c1.381-1.68,2.244-3.802,2.244-6.147c0-2.88-1.275-5.441-3.264-7.223
	c0.685-1.419,1.101-2.991,1.101-4.672c0-5.235-3.796-9.394-8.737-10.391c1.081,1.948,1.75,4.157,1.75,6.542
	c0,2.111-0.523,4.085-1.383,5.868c2.497,2.238,4.099,5.454,4.099,9.071c0,2.944-1.084,5.609-2.819,7.72
	c0.064,0.587,0.103,1.182,0.103,1.787c0,3.412-1.056,6.572-2.848,9.189c0.704,0.189,1.43,0.305,2.176,0.373
	c0.392,0.036,0.77,0.118,1.171,0.118C217.581,376.093,217.825,376.07,218.072,376.056z"/>
<path style="fill:#5F4648;" d="M201.465,382.663c-0.31,0.018-0.616,0.047-0.93,0.047c-0.504,0-0.979-0.104-1.471-0.148v21.877h5.432
	v-22.27c-0.959,0.241-1.951,0.378-2.969,0.441C201.504,382.625,201.487,382.647,201.465,382.663z"/>
<path style="fill:#E69664;" d="M208.683,344.684c0,2.111-0.523,4.085-1.383,5.868c2.498,2.238,4.099,5.454,4.099,9.071
	c0,2.945-1.084,5.61-2.819,7.72c0.064,0.587,0.103,1.182,0.103,1.786c0,5.61-2.842,10.548-7.157,13.48
	c1.019-0.063,2.01-0.2,2.969-0.441c3.91-0.982,7.274-3.332,9.488-6.566c1.792-2.617,2.848-5.778,2.848-9.189
	c0-0.604-0.039-1.199-0.103-1.787c1.734-2.11,2.819-4.775,2.819-7.72c0-3.618-1.602-6.833-4.099-9.071
	c0.859-1.782,1.383-3.756,1.383-5.868c0-2.386-0.669-4.594-1.75-6.542c-0.215-0.388-0.404-0.79-0.655-1.153
	c-2.45-3.55-6.537-5.885-11.176-5.885c-1.849,0-3.552,0.466-5.152,1.138c0.518,0.739,0.95,1.534,1.341,2.356
	C204.8,333.698,208.683,338.71,208.683,344.684z"/>
<path style="fill:#D26E4B;" d="M201.465,382.663c0.022-0.015,0.039-0.038,0.062-0.053c4.315-2.932,7.157-7.871,7.157-13.48
	c0-0.604-0.039-1.199-0.103-1.786c1.734-2.11,2.819-4.775,2.819-7.72c0-3.617-1.602-6.833-4.099-9.071
	c0.86-1.782,1.383-3.756,1.383-5.868c0-5.974-3.883-10.986-9.243-12.802c1,2.105,1.606,4.434,1.606,6.919
	c0,2.519-0.624,4.873-1.65,6.999c2.979,2.669,4.89,6.506,4.89,10.82c0,3.513-1.293,6.692-3.362,9.209
	c0.077,0.701,0.123,1.41,0.123,2.131c0,5.402-2.21,10.283-5.767,13.806c1.206,0.413,2.469,0.675,3.785,0.795
	c0.492,0.045,0.967,0.148,1.471,0.148C200.849,382.709,201.155,382.68,201.465,382.663z"/>
<path style="fill:#5F4648;" d="M182.716,387.344c-0.369,0.021-0.735,0.056-1.109,0.056c-0.601,0-1.168-0.124-1.755-0.177v26.096
	h6.48v-26.565c-1.145,0.288-2.327,0.452-3.542,0.526C182.762,387.299,182.743,387.326,182.716,387.344z"/>
<path style="fill:#E69664;" d="M191.326,342.041c0,2.519-0.624,4.874-1.65,7c2.979,2.669,4.89,6.505,4.89,10.82
	c0,3.513-1.293,6.691-3.362,9.208c0.077,0.701,0.123,1.41,0.123,2.131c0,6.692-3.39,12.583-8.537,16.08
	c1.215-0.074,2.397-0.239,3.542-0.526c3.428-0.861,6.514-2.579,8.948-4.988c3.557-3.523,5.767-8.403,5.767-13.806
	c0-0.721-0.046-1.43-0.123-2.131c2.069-2.517,3.362-5.696,3.362-9.209c0-4.314-1.91-8.151-4.89-10.82
	c1.026-2.126,1.65-4.48,1.65-6.999c0-2.486-0.605-4.814-1.606-6.919c-0.391-0.822-0.823-1.618-1.341-2.356
	c-2.93-4.178-7.763-6.924-13.253-6.924c-3.421,0-6.555,1.103-9.154,2.92c0.177,0.143,0.354,0.285,0.526,0.434
	C184.646,326.528,191.326,333.469,191.326,342.041z"/>
<path style="fill:#D26E4B;" d="M182.716,387.344c0.027-0.018,0.046-0.045,0.073-0.063c5.147-3.497,8.537-9.388,8.537-16.08
	c0-0.721-0.046-1.431-0.123-2.131c2.069-2.517,3.362-5.696,3.362-9.208c0-4.315-1.911-8.151-4.89-10.82
	c1.026-2.126,1.65-4.481,1.65-7c0-8.572-6.68-15.513-15.108-16.085c4.033,3.494,6.637,8.591,6.637,14.346
	c0,2.963-0.734,5.732-1.941,8.233c3.505,3.141,5.752,7.653,5.752,12.729c0,4.132-1.521,7.872-3.955,10.833
	c0.09,0.824,0.144,1.659,0.144,2.507c0,4.637-1.401,8.938-3.773,12.542c0.254,0.033,0.511,0.054,0.769,0.078
	c0.587,0.053,1.154,0.177,1.755,0.177C181.981,387.4,182.347,387.365,182.716,387.344z"/>
<path style="fill:#5F4648;" d="M161.292,397.405c-0.435,0.025-0.865,0.066-1.305,0.066c-0.707,0-1.374-0.145-2.064-0.208v30.699
	h7.623v-31.25c-1.347,0.338-2.738,0.531-4.167,0.619C161.347,397.353,161.324,397.384,161.292,397.405z"/>
<path style="fill:#E69664;" d="M171.421,344.113c0,2.962-0.734,5.732-1.941,8.233c3.505,3.14,5.752,7.653,5.752,12.729
	c0,4.132-1.521,7.872-3.955,10.833c0.09,0.824,0.144,1.659,0.144,2.506c0,7.873-3.988,14.804-10.043,18.917
	c1.429-0.087,2.821-0.28,4.167-0.619c5.626-1.413,10.435-4.854,13.537-9.567c2.372-3.604,3.773-7.905,3.773-12.542
	c0-0.848-0.054-1.683-0.144-2.507c2.434-2.961,3.955-6.701,3.955-10.833c0-5.076-2.247-9.588-5.752-12.729
	c1.207-2.501,1.941-5.271,1.941-8.233c0-5.755-2.604-10.852-6.637-14.346c-0.172-0.149-0.349-0.292-0.526-0.434
	c-3.269-2.634-7.369-4.277-11.894-4.277c-2.002,0-3.914,0.343-5.72,0.918c0.887,1.448,1.59,3,2.148,4.634
	C166.818,329.793,171.421,336.399,171.421,344.113z"/>
<path style="fill:#D26E4B;" d="M161.292,397.405c0.031-0.021,0.054-0.052,0.085-0.074c6.056-4.113,10.043-11.044,10.043-18.917
	c0-0.848-0.054-1.683-0.144-2.506c2.434-2.961,3.955-6.701,3.955-10.833c0-5.076-2.247-9.589-5.752-12.729
	c1.207-2.501,1.941-5.271,1.941-8.233c0-7.713-4.604-14.319-11.195-17.316c0.809,2.368,1.343,4.863,1.343,7.504
	c0,3.629-0.899,7.022-2.377,10.085c4.293,3.846,7.046,9.374,7.046,15.591c0,5.062-1.864,9.642-4.845,13.269
	c0.11,1.009,0.177,2.032,0.177,3.071c0,7.841-3.239,14.91-8.431,19.994c1.536,0.485,3.128,0.801,4.784,0.952
	c0.691,0.063,1.357,0.208,2.064,0.208C160.428,397.472,160.858,397.43,161.292,397.405z"/>
<path style="fill:#5F4648;" d="M135.157,404.248c-0.532,0.03-1.059,0.081-1.599,0.081c-0.866,0-1.683-0.178-2.529-0.255v37.603
	h9.337v-38.278c-1.645,0.413-3.343,0.648-5.088,0.756C135.236,404.184,135.199,404.219,135.157,404.248z"/>
<path style="fill:#E69664;" d="M147.564,338.97c0,3.629-0.899,7.022-2.377,10.085c4.293,3.846,7.045,9.374,7.045,15.591
	c0,5.062-1.863,9.642-4.845,13.269c0.11,1.009,0.176,2.032,0.176,3.071c0,9.638-4.874,18.129-12.286,23.169
	c1.745-0.108,3.444-0.343,5.088-0.756c4.887-1.227,9.284-3.671,12.772-7.087c5.192-5.084,8.431-12.153,8.431-19.994
	c0-1.039-0.066-2.062-0.177-3.071c2.981-3.627,4.845-8.208,4.845-13.269c0-6.217-2.753-11.745-7.046-15.591
	c1.478-3.063,2.377-6.457,2.377-10.085c0-2.641-0.535-5.137-1.343-7.504c-0.558-1.633-1.261-3.186-2.148-4.634
	c-4.104-6.695-11.423-11.204-19.852-11.204c-2.281,0-4.456,0.39-6.533,1.003c1.809,2.132,3.394,4.461,4.496,7.074
	C142.976,323.117,147.564,330.474,147.564,338.97z"/>
<path style="fill:#D26E4B;" d="M135.157,404.248c0.042-0.028,0.079-0.064,0.121-0.092c7.412-5.04,12.286-13.531,12.286-23.169
	c0-1.039-0.066-2.062-0.176-3.071c2.981-3.627,4.845-8.208,4.845-13.269c0-6.217-2.752-11.745-7.045-15.591
	c1.478-3.063,2.377-6.457,2.377-10.085c0-8.496-4.588-15.853-11.374-19.933c1.396,3.308,2.169,6.941,2.169,10.757
	c0,4.306-1.067,8.332-2.82,11.967c5.093,4.564,8.359,11.123,8.359,18.5c0,6.006-2.211,11.441-5.749,15.745
	c0.131,1.198,0.209,2.411,0.209,3.643c0,9.52-4.054,18.046-10.467,24.105c1.014,0.208,2.087,0.226,3.138,0.321
	c0.846,0.077,1.663,0.255,2.529,0.255C134.098,404.329,134.625,404.278,135.157,404.248z"/>
<path style="fill:#5F4648;" d="M107.021,412.788c-0.632,0.036-1.257,0.096-1.897,0.096c-1.028,0-1.997-0.211-3-0.303v44.618h11.079
	V411.78c-1.951,0.49-3.967,0.771-6.038,0.898C107.114,412.712,107.071,412.754,107.021,412.788z"/>
<path style="fill:#E69664;" d="M121.741,335.333c0,3.174-0.726,6.128-1.733,8.953c0.91,2.039,1.587,4.192,2.042,6.436
	c3.243,4.183,5.231,9.371,5.231,15.078c0,6.005-2.211,11.441-5.749,15.745c0.131,1.197,0.209,2.411,0.209,3.643
	c0,11.436-5.784,21.512-14.577,27.491c2.071-0.128,4.086-0.409,6.038-0.898c5.598-1.406,10.625-4.186,14.69-8.027
	c6.414-6.059,10.467-14.586,10.467-24.105c0-1.232-0.079-2.445-0.209-3.643c3.538-4.304,5.749-9.739,5.749-15.745
	c0-7.377-3.266-13.936-8.359-18.5c1.753-3.635,2.82-7.661,2.82-11.967c0-3.815-0.774-7.449-2.169-10.757
	c-1.103-2.613-2.687-4.942-4.496-7.074c-4.889-5.761-12.021-9.5-20.103-9.772c2.542,4.836,4.114,10.257,4.127,16.097
	C119.433,322.998,121.741,328.867,121.741,335.333z"/>
<g>
	<path style="fill:#D26E4B;" d="M107.021,412.788c0.05-0.034,0.094-0.075,0.144-0.109c8.793-5.979,14.577-16.056,14.577-27.491
		c0-1.232-0.079-2.446-0.209-3.643c3.538-4.304,5.749-9.739,5.749-15.745c0-5.707-1.988-10.895-5.231-15.078
		c0.403,1.99,0.676,4.03,0.676,6.144c0,7.589-2.794,14.458-7.264,19.896c0.165,1.513,0.264,3.046,0.264,4.604
		c0,12.429-5.502,23.478-14.082,31.168c0.159,0.017,0.318,0.033,0.479,0.048c1.004,0.091,1.973,0.303,3,0.303
		C105.764,412.884,106.389,412.824,107.021,412.788z"/>
	<path style="fill:#D26E4B;" d="M115.718,318.287c0,0.027,0.008,0.051,0.008,0.078c0,5.441-1.348,10.528-3.564,15.122
		c3.332,2.986,6.004,6.667,7.846,10.798c1.007-2.825,1.733-5.779,1.733-8.953C121.741,328.867,119.433,322.998,115.718,318.287z"/>
</g>
<path style="fill:#5F4648;" d="M76.305,423.105c-0.063,0.043-0.118,0.096-0.182,0.139c-0.798,0.045-1.588,0.122-2.397,0.122
	c-1.299,0-2.523-0.267-3.792-0.382v8.743c4.506,4.769,9.143,9.413,14,13.824v-23.58C81.469,422.589,78.922,422.943,76.305,423.105z"
	/>
<g>
	<path style="fill:#E69664;" d="M52.059,298.539c-0.966,1.408-1.804,2.905-2.562,4.451C50.256,301.446,51.09,299.944,52.059,298.539
		z"/>
	<path style="fill:#E69664;" d="M52.092,298.497c2.146-3.104,4.774-5.848,7.778-8.117c19.262,0.079,34.856,15.705,34.856,34.985
		c0,5.441-1.348,10.528-3.564,15.122c6.437,5.767,10.564,14.055,10.564,23.378c0,7.589-2.794,14.458-7.264,19.896
		c0.165,1.513,0.264,3.046,0.264,4.604c0,14.451-7.309,27.183-18.421,34.74c2.617-0.162,5.164-0.516,7.629-1.135
		c6.704-1.684,12.721-4.966,17.709-9.437c8.58-7.69,14.082-18.739,14.082-31.168c0-1.558-0.099-3.091-0.264-4.604
		c4.47-5.438,7.264-12.307,7.264-19.896c0-2.114-0.273-4.154-0.676-6.144c-0.455-2.244-1.132-4.397-2.042-6.436
		c-1.842-4.131-4.514-7.813-7.846-10.798c2.216-4.594,3.564-9.681,3.564-15.122c0-0.027-0.008-0.051-0.008-0.078
		c-0.013-5.839-1.586-11.26-4.127-16.097c-5.856-11.142-17.404-18.825-30.865-18.825c-8.251,0-15.766,2.907-21.711,7.699
		C56.37,293.197,54.025,295.688,52.092,298.497z"/>
	<path style="fill:#E69664;" d="M49.206,303.501c-0.81,1.726-1.491,3.525-2.018,5.389C47.716,307.025,48.394,305.226,49.206,303.501
		z"/>
</g>
<path style="fill:#D26E4B;" d="M73.726,423.365c0.81,0,1.599-0.076,2.397-0.122c0.063-0.042,0.119-0.096,0.182-0.139
	c11.112-7.557,18.421-20.289,18.421-34.74c0-1.558-0.099-3.091-0.264-4.604c4.47-5.438,7.264-12.307,7.264-19.896
	c0-9.323-4.127-17.611-10.564-23.378c2.216-4.594,3.564-9.681,3.564-15.122c0-19.281-15.594-34.906-34.856-34.985
	c-3.004,2.27-5.632,5.013-7.778,8.117c-0.01,0.015-0.023,0.027-0.033,0.042c-0.968,1.405-1.803,2.907-2.562,4.451
	c-0.087,0.177-0.207,0.333-0.291,0.512c-0.812,1.724-1.49,3.524-2.018,5.389c-4.944,2.946-8.985,7.206-11.714,12.273
	c-2.359,4.382-3.749,9.362-3.749,14.701c0,8.033,3.1,15.282,8.049,20.847c-4.73,6.502-7.569,14.418-7.914,22.988
	c8.135,14.708,17.68,28.518,28.445,41.273c3.071,1.042,6.284,1.705,9.628,2.009C71.203,423.098,72.427,423.365,73.726,423.365z"/>
<path style="fill:#FFE664;" d="M386.239,209.076C324.074,182.468,149.356,133,123,133c-19.771,0-62.45,7.329-98.812,14.35
	C8.7,180.337,0,217.146,0,256c0,2.011,0.162,3.981,0.211,5.979C23.347,247.594,43.828,237.515,112.667,238
	C202.496,238.632,400,238.667,386.239,209.076z"/>
<path style="fill:#F5C350;" d="M24.188,147.35C8.7,180.337,0,217.146,0,256c0,2.011,0.162,3.981,0.211,5.979
	C23.347,247.594,43.828,237.515,112.667,238c40.973,0.289,104.321,0.442,159.831-2.272C187,205.333,86.141,159.106,52.899,142.021
	C43.241,143.732,33.508,145.55,24.188,147.35z"/>
<g>
	<path style="fill:#E69664;" d="M203.798,237.789c21.903-0.326,44.404-0.917,65.855-1.924
		c-101.01-25.545-188.736-65.898-236.437-90.236c-3.038,0.573-6.059,1.148-9.029,1.721c-2.463,5.247-4.689,10.623-6.801,16.056
		C72.396,195.197,146.969,220.909,203.798,237.789z"/>
	<path style="fill:#E69664;" d="M64.96,139.938c32.228,16.301,146.674,71.777,251.146,92.814c17.59-1.628,33.09-3.721,45.053-6.422
		c-50.645-14.037-191.862-53.864-221.826-69.663c-18.071-9.528-34.339-16.454-46.214-21.04
		C84.406,136.792,74.838,138.277,64.96,139.938z"/>
</g>
<path style="fill:#FFB764;" d="M71.193,138.909c53.523,20.272,188.208,69.598,281.166,89.177c11.508-2.073,20.7-4.557,26.689-7.54
	c-60.676-13.296-187.108-43.661-285.324-84.998C86.687,136.482,79.084,137.627,71.193,138.909z"/>
<path style="fill:#E69664;" d="M8.083,192.429C2.869,212.764,0,234.038,0,256c0,2.011,0.162,3.981,0.211,5.979
	c22.227-13.821,42.131-23.638,104.693-23.96C65.414,224.058,25.311,202.25,8.083,192.429z"/>
<path style="fill:#FFB764;" d="M126.229,133.18c48.429,16.575,182.055,63.762,260.586,79.106c0.065-1.034-0.058-2.094-0.577-3.21
	C326.19,183.374,161.153,136.353,126.229,133.18z"/>
<g>
</g>
<g>
</g>
<g>
</g>
<g>
</g>
<g>
</g>
<g>
</g>
<g>
</g>
<g>
</g>
<g>
</g>
<g>
</g>
<g>
</g>
<g>
</g>
<g>
</g>
<g>
</g>
<g>
</g>
</svg>
