<?xml version="1.0" encoding="iso-8859-1"?>
<!-- Generator: Adobe Illustrator 19.0.0, SVG Export Plug-In . SVG Version: 6.00 Build 0)  -->
<svg version="1.1" id="Layer_1" xmlns="http://www.w3.org/2000/svg" xmlns:xlink="http://www.w3.org/1999/xlink" x="0px" y="0px"
	 viewBox="0 0 512 512" style="enable-background:new 0 0 512 512;" xml:space="preserve">
<circle style="fill:#B9F5F0;" cx="256" cy="256" r="256"/>
<path style="fill:#9FE4DD;" d="M512,256c0-20.917-2.567-41.227-7.3-60.688C476.33,204.46,411.773,225,404,225c-10,0-136-31-150-31
	s-148,26-148,26l-4,39h409.924C511.936,257.997,512,257.006,512,256z"/>
<path style="fill:#85D3CB;" d="M0.202,248H424l56-8c0,0-80-32-96-32s-96,19-112,19s-168-27-184-27
	c-12.765,0-56.04,10.179-85.221,18.359C1.348,228.069,0.511,237.967,0.202,248z"/>
<path style="fill:#88BE64;" d="M312,240c-32,0-144-8-160-8c-13.695,0-121.095,11.715-151.775,15.092C0.124,250.055,0,253.012,0,256
	c0,2.683,0.12,5.337,0.202,8h511.596c0.082-2.663,0.202-5.317,0.202-8c0-6.368-0.313-12.661-0.77-18.912
	C496.638,234.8,474.947,232,456,232C424,232,344,240,312,240z"/>
<path style="fill:#73A050;" d="M0.548,272h510.904c0.327-5.296,0.548-10.621,0.548-16c0-4.502-0.122-8.976-0.352-13.421
	C496.19,244.917,473.934,248,464,248c-16,0-64-8-72-8c-16,0-128,16-152,16s-117.667-8-141.667-8c-16.234,0-75.333,5.75-98.307,9.041
	C0.046,262.065,0.242,267.047,0.548,272z"/>
<path style="fill:#DCD7B9;" d="M2.062,288h507.876c0.66-5.288,1.182-10.617,1.514-16H0.548C0.88,277.383,1.402,282.712,2.062,288z"
	/>
<path style="fill:#F5A064;" d="M503.798,320c3.099-12.027,5.45-24.355,6.775-37H1.427c1.326,12.645,3.677,24.973,6.775,37H503.798z"
	/>
<path style="fill:#EB8E5F;" d="M34.333,384C78.603,460.497,161.261,512,256,512s177.397-51.503,221.667-128H34.333z"/>
<path style="fill:#DC7E65;" d="M477.667,384H34.333c8.694,15.023,18.849,29.086,30.309,41.979
	C118.667,443.333,196.289,443.621,297,432c52-6,94.333,8.667,140.243,4.784C452.906,421.082,466.484,403.323,477.667,384z"/>
<path style="fill:#CD6E6A;" d="M489.914,360H22.086c8.55,19.201,19.388,37.144,32.178,53.502C112,424,192.781,412.445,236,404
	c87-17,136-7,175,0.5c17.628,3.39,38.253,3.5,50.973,3.5C472.948,393.152,482.317,377.06,489.914,360z"/>
<path style="fill:#F5A064;" d="M276.667,458.667c-53.333,0.667-84,18.667-151.066,17.62C163.798,498.947,208.366,512,256,512
	c40.302,0,78.412-9.341,112.328-25.932C345.333,467.333,314.271,458.197,276.667,458.667z"/>
<g>
	<circle style="fill:#EB8E5F;" cx="225.33" cy="483.67" r="6.667"/>
	<circle style="fill:#EB8E5F;" cx="281.33" cy="473" r="6.667"/>
</g>
<circle style="fill:#DC7E65;" cx="259" cy="493.67" r="6.667"/>
<g>
	<circle style="fill:#F5A064;" cx="164.17" cy="455.83" r="5.167"/>
	<circle style="fill:#F5A064;" cx="303" cy="443.33" r="5.167"/>
</g>
<g>
	<circle style="fill:#DC7E65;" cx="200" cy="457.33" r="5.167"/>
	<circle style="fill:#DC7E65;" cx="376.67" cy="453" r="5.167"/>
</g>
<path style="fill:#FFFFFF;" d="M354.234,158c0-8.896-4.329-16.722-10.927-21.692c6.607-7.95,10.585-18.163,10.585-29.308
	c0-25.346-20.547-45.893-45.893-45.893c-5.614,0-10.968,1.058-15.94,2.903c-8.346-11.439-21.815-18.903-37.06-18.903
	c-25.346,0-45.893,20.547-45.893,45.893c0,24.371,19.012,44.25,43.006,45.747c0.16,5.448,1.512,10.558,3.764,15.18
	c-14.356,0.766-25.792,12.542-25.792,27.089c0,15.041,12.193,27.234,27.234,27.234c1.023,0,1.994-0.191,2.987-0.301
	C260.127,206.942,260,207.955,260,209c0,9.389,7.611,17,17,17c1.243,0,2.447-0.151,3.614-0.404L289,266l52,10
	C341,276,354.234,160.821,354.234,158z"/>
<path style="fill:#DCD7B9;" d="M15.588,344c3.058,8.35,6.515,16.504,10.392,24.421c19.729,4.645,66.245,9.958,167.354-0.421
	c123.597-12.687,209.283,21.242,290.493,4.706c4.739-9.232,8.765-18.867,12.373-28.706H15.588z"/>
<path style="fill:#EBEBD1;" d="M506.85,307.309C469.9,306.455,419,305,398.5,298c-19.588-6.689-42.5-44.667-47.833-48.667
	S337.5,250.75,327.5,252.5c-10.83,1.895-38.167-4.5-48.833-4.5c-10.667,0-17.333,28.667-33.333,34.667
	c-20.409,7.653-125.333,8.667-142,22.667c-9.097,7.641-45.333,12-95.674,12.912c2.721,10.893,6.173,21.488,10.24,31.777
	C41,358,93.431,365.703,144,360c133-15,177.482-8.641,244-4c43,3,71-0.5,107.708-10.058
	C500.382,333.491,504.147,320.595,506.85,307.309z"/>
<g>
	<path style="fill:#DCD7B9;" d="M7.66,318.245c1.417,5.67,3.05,11.25,4.847,16.758C116.5,334,220.5,313,220.5,304
		s-41-11.5-75.196-9.362c-19.797,2.55-36.192,5.841-41.97,10.695C94.237,312.974,58,317.333,7.66,318.245z"/>
	<path style="fill:#DCD7B9;" d="M328,296c1-9-3-11-22-21c-14.393-7.575-16.725-19.157-13.971-25.637
		c-5.339-0.761-10.146-1.363-13.362-1.363c-10.667,0-17.333,28.667-33.333,34.667c-2.733,1.025-7.018,1.928-12.367,2.762
		C283.877,290.947,327.191,303.277,328,296z"/>
</g>
<g>
	<circle style="fill:#FFFFFF;" cx="184" cy="68.5" r="17.13"/>
	<circle style="fill:#FFFFFF;" cx="217" cy="144.83" r="10.667"/>
	<circle style="fill:#FFFFFF;" cx="369.33" cy="118" r="9.333"/>
	<circle style="fill:#FFFFFF;" cx="197.45" cy="101" r="5.454"/>
	<circle style="fill:#FFFFFF;" cx="249.5" cy="216.55" r="5.454"/>
	<circle style="fill:#FFFFFF;" cx="300" cy="47.5" r="5.454"/>
</g>
<g>
</g>
<g>
</g>
<g>
</g>
<g>
</g>
<g>
</g>
<g>
</g>
<g>
</g>
<g>
</g>
<g>
</g>
<g>
</g>
<g>
</g>
<g>
</g>
<g>
</g>
<g>
</g>
<g>
</g>
</svg>
