<?xml version="1.0" encoding="iso-8859-1"?>
<!-- Generator: Adobe Illustrator 19.0.0, SVG Export Plug-In . SVG Version: 6.00 Build 0)  -->
<svg version="1.1" id="Layer_1" xmlns="http://www.w3.org/2000/svg" xmlns:xlink="http://www.w3.org/1999/xlink" x="0px" y="0px"
	 viewBox="0 0 512 512" style="enable-background:new 0 0 512 512;" xml:space="preserve">
<circle style="fill:#FFFABE;" cx="256" cy="256" r="256"/>
<g>
	<path style="fill:#FCEB9B;" d="M112.182,109.997c1.698,0,3.302,0.334,4.84,0.819c4.871-7.003,12.952-11.607,22.129-11.607
		s17.258,4.604,22.129,11.607c1.538-0.485,3.142-0.819,4.84-0.819c8.937,0,16.182,7.245,16.182,16.182H96
		C96,117.242,103.245,109.997,112.182,109.997z"/>
	<path style="fill:#FCEB9B;" d="M344,129.29c0-15.962-12.94-28.903-28.903-28.903c-2.409,0-4.712,0.381-6.95,0.936
		C300.605,93.179,289.911,88,277.936,88c-14.52,0-27.234,7.531-34.596,18.862c-3.877-1.821-8.175-2.862-12.733-2.862
		c-17.049,0-30.871,14.074-30.871,31.435l144.047,0.783C344,136,344,129.29,344,129.29z"/>
</g>
<path style="fill:#B9F5F0;" d="M3.131,296c11.608,73.965,54.906,137.368,115.541,176h274.656
	c60.635-38.632,103.933-102.035,115.541-176H3.131z"/>
<path style="fill:#DCF8D7;" d="M503.838,320c2.027-7.868,3.753-15.857,5.031-24H3.131c1.278,8.143,3.004,16.132,5.031,24H503.838z"
	/>
<g>
	<path style="fill:#FFB482;" d="M333.176,349.475C333.029,347.849,320,341.551,312,344c-22.949,7.026-24,24-24,24l96,2.449
		C360.85,335.724,341.894,342.868,333.176,349.475z"/>
	<path style="fill:#FFB482;" d="M146,377c0,0-10-8-21.5-5.5c-17.48,3.8-22,17.5-46,8c-17.418-6.895-32.997-4.049-44.375,4.137
		c8.978,15.572,19.507,30.132,31.447,43.415c0,0,213.641-28.098,174.428-51.052c-27.333-16-41.333-3.333-41.333-3.333
		C195.58,367.471,185,362,174.018,369.418C174.018,369.418,156.333,364.333,146,377z"/>
</g>
<rect x="421.27" y="357" style="fill:#828246;" width="5.727" height="18"/>
<path style="fill:#AAC864;" d="M432,360h-16c-8.837,0-16-7.163-16-16l0,0c0-8.837,7.163-16,16-16h16c8.837,0,16,7.163,16,16l0,0
	C448,352.837,440.837,360,432,360z"/>
<path style="fill:#88BE64;" d="M410.667,344c0-8.837,7.163-16,16-16H416c-8.837,0-16,7.163-16,16s7.163,16,16,16h10.667
	C417.83,360,410.667,352.837,410.667,344z"/>
<rect x="383.27" y="341" style="fill:#828246;" width="8.727" height="26"/>
<path style="fill:#E6D25A;" d="M400,344h-24c-13.255,0-24-10.745-24-24l0,0c0-13.255,10.745-24,24-24h24c13.255,0,24,10.745,24,24
	l0,0C424,333.255,413.255,344,400,344z"/>
<path style="fill:#D2C355;" d="M368,320c0-13.255,10.745-24,24-24h-16c-13.255,0-24,10.745-24,24s10.745,24,24,24h16
	C378.745,344,368,333.255,368,320z"/>
<rect x="116" y="337" style="fill:#828246;" width="8.727" height="64"/>
<path style="fill:#D2C355;" d="M151.856,305.425c0.043-0.477,0.144-0.937,0.144-1.425c0-8.836-7.164-16-16-16h-32
	c-8.836,0-16,7.164-16,16c0,0.488,0.101,0.948,0.144,1.425C78.77,308.691,72,317.513,72,328c0,13.255,10.745,24,24,24h48
	c13.255,0,24-10.745,24-24C168,317.513,161.23,308.691,151.856,305.425z"/>
<path style="fill:#E6D25A;" d="M151.856,305.425c0.043-0.477,0.144-0.937,0.144-1.425c0-8.836-7.164-16-16-16h-16
	c8.836,0,16,7.164,16,16c0,0.488-0.101,0.948-0.144,1.425C145.23,308.691,152,317.513,152,328c0,13.255-10.745,24-24,24h16
	c13.255,0,24-10.745,24-24C168,317.513,161.23,308.691,151.856,305.425z"/>
<rect x="179.64" y="321" style="fill:#828246;" width="8.727" height="64"/>
<path style="fill:#D2E173;" d="M215.856,281.425c0.043-0.477,0.144-0.937,0.144-1.425c0-8.836-7.164-16-16-16h-32
	c-8.836,0-16,7.164-16,16c0,0.488,0.101,0.948,0.144,1.425C142.77,284.691,136,293.513,136,304c0,13.255,10.745,24,24,24h48
	c13.255,0,24-10.745,24-24C232,293.513,225.23,284.691,215.856,281.425z"/>
<path style="fill:#DCEB7D;" d="M215.856,281.425c0.043-0.477,0.144-0.937,0.144-1.425c0-8.836-7.164-16-16-16h-16
	c8.836,0,16,7.164,16,16c0,0.488-0.101,0.948-0.144,1.425C209.23,284.691,216,293.513,216,304c0,13.255-10.745,24-24,24h16
	c13.255,0,24-10.745,24-24C232,293.513,225.23,284.691,215.856,281.425z"/>
<path style="fill:#D2E173;" d="M471.162,394.635C439.734,371.163,344,336,208,376c-90.637,26.658-132.231,22.726-165.692,20.928
	C88.115,466.245,166.697,512,256,512C346.278,512,425.583,465.227,471.162,394.635z"/>
<path style="fill:#D2D764;" d="M208.859,415.272c-51.533,23.797-87.102,34.045-114.574,39.141C138.365,490.404,194.651,512,256,512
	c90.197,0,169.433-46.693,215.033-117.178C435.746,376.313,336.517,356.321,208.859,415.272z"/>
<g>
	<path style="fill:#FCEB9B;" d="M168,77.701c0-14.575,11.604-26.39,25.917-26.39c2.16,0,4.226,0.348,6.232,0.855
		C206.912,44.729,216.501,40,227.24,40c20.448,0,37.025,16.879,37.025,37.701C264.265,77.701,168,77.701,168,77.701z"/>
	<path style="fill:#FCEB9B;" d="M380.427,77.701c0-10.4-8.28-18.831-18.494-18.831c-1.542,0-3.015,0.248-4.447,0.61
		c-4.826-5.307-11.668-8.681-19.331-8.681c-14.591,0-26.42,12.045-26.42,26.902H380.427z"/>
</g>
<g>
	<path style="fill:#FDF2AC;" d="M188.508,193.552c-1.558,0-3.03,0.307-4.442,0.752c-4.47-6.426-11.886-10.651-20.307-10.651
		c-8.421,0-15.837,4.225-20.307,10.651c-1.411-0.445-2.884-0.752-4.442-0.752c-8.201,0-14.849,6.648-14.849,14.849h79.196
		C203.358,200.2,196.71,193.552,188.508,193.552z"/>
	<path style="fill:#FDF2AC;" d="M72,189.403c0-6.919,5.508-12.528,12.303-12.528c1.026,0,2.006,0.165,2.959,0.406
		c3.21-3.53,7.762-5.775,12.86-5.775c9.707,0,17.576,8.013,17.576,17.897L72,189.403L72,189.403z"/>
	<path style="fill:#FDF2AC;" d="M464,255.717c0-6.076-4.838-11.002-10.805-11.002c-0.901,0-1.762,0.145-2.598,0.356
		c-2.819-3.1-6.817-5.072-11.294-5.072c-8.525,0-15.435,7.037-15.435,15.717H464V255.717z"/>
</g>
<path style="fill:#828246;" d="M280.211,400h-0.421c-3.139,0-5.684-2.545-5.684-5.684V276c0-3.139,2.545-5.684,5.684-5.684h0.421
	c3.139,0,5.684,2.545,5.684,5.684v118.316C285.895,397.455,283.35,400,280.211,400z"/>
<path style="fill:#7BAD64;" d="M368.421,214.316c0-21.161-17.155-38.316-38.316-38.316h-100.21
	c-21.161,0-38.316,17.155-38.316,38.316c0,18.183,12.678,33.374,29.668,37.299c0.988,10.475,9.704,18.701,20.437,18.701h10.904
	c3.319,6.951,10.354,11.789,18.57,11.789h17.684c8.216,0,15.251-4.838,18.57-11.789h10.904c10.733,0,19.449-8.226,20.437-18.701
	C355.743,247.69,368.421,232.499,368.421,214.316z"/>
<path style="fill:#828246;" d="M328,432L328,432c-4.418,0-8-3.582-8-8V264c0-4.418,3.582-8,8-8l0,0c4.418,0,8,3.582,8,8v160
	C336,428.418,332.418,432,328,432z"/>
<path style="fill:#88BE64;" d="M448,180c0-28.719-23.281-52-52-52H260c-28.719,0-52,23.281-52,52
	c0,24.677,17.207,45.293,40.264,50.621C249.604,244.836,261.434,256,276,256h14.798c4.504,9.434,14.052,16,25.202,16h24
	c11.15,0,20.698-6.566,25.202-16H380c14.566,0,26.396-11.164,27.736-25.379C430.793,225.293,448,204.677,448,180z"/>
<g>
	<path style="fill:#AAC864;" d="M349.416,270.291c-1.027,0.371-2.083,0.679-3.163,0.928
		C347.333,270.968,348.388,270.663,349.416,270.291z"/>
	<path style="fill:#AAC864;" d="M344.806,271.542C343.242,271.814,341.645,272,340,272C341.646,272,343.241,271.815,344.806,271.542
		z"/>
	<path style="fill:#AAC864;" d="M358.525,264.873c-1.112,1-2.294,1.923-3.557,2.734
		C356.232,266.796,357.412,265.872,358.525,264.873z"/>
	<path style="fill:#AAC864;" d="M354.102,268.087c-1.034,0.613-2.104,1.167-3.219,1.644
		C351.998,269.253,353.067,268.701,354.102,268.087z"/>
	<path style="fill:#AAC864;" d="M364.741,256.816c-0.642,1.252-1.395,2.434-2.21,3.567
		C363.351,259.252,364.093,258.066,364.741,256.816z"/>
	<path style="fill:#AAC864;" d="M396,128H260c-14.733,0-28.007,6.154-37.469,16H356c28.719,0,52,23.281,52,52
		c0,24.677-17.207,45.293-40.264,50.621c-0.333,3.527-1.317,6.862-2.822,9.89c0.088-0.175,0.204-0.333,0.289-0.51H380
		c14.566,0,26.396-11.164,27.736-25.379C430.793,225.293,448,204.677,448,180C448,151.281,424.719,128,396,128z"/>
	<path style="fill:#AAC864;" d="M359.439,263.964c0.818-0.804,1.587-1.649,2.303-2.547
		C361.03,262.316,360.255,263.16,359.439,263.964z"/>
</g>
<path style="fill:#D2C355;" d="M158.858,492.901C188.81,505.207,221.608,512,256,512c65.375,0,124.916-24.615,170.141-64.956
	C312,416,296,480,158.858,492.901z"/>
<g>
	<circle style="fill:#D2E173;" cx="358" cy="416.17" r="3.833"/>
	<circle style="fill:#D2E173;" cx="226.67" cy="432" r="3.833"/>
</g>
<g>
	<circle style="fill:#D2C355;" cx="216" cy="457.5" r="3.833"/>
	<circle style="fill:#D2C355;" cx="391.33" cy="402.67" r="3.833"/>
	<circle style="fill:#D2C355;" cx="301.33" cy="437.83" r="3.833"/>
	<circle style="fill:#D2C355;" cx="265.5" cy="414.67" r="3.833"/>
</g>
<g>
	<circle style="fill:#D2E173;" cx="258.67" cy="446" r="3.833"/>
	<circle style="fill:#D2E173;" cx="168.83" cy="460.67" r="3.833"/>
	<circle style="fill:#D2E173;" cx="400.83" cy="423.33" r="3.833"/>
	<circle style="fill:#D2E173;" cx="415.17" cy="393.33" r="3.833"/>
</g>
<g>
	<circle style="fill:#D2D764;" cx="280.17" cy="487.92" r="5.167"/>
	<circle style="fill:#D2D764;" cx="347.42" cy="460.67" r="5.167"/>
	<circle style="fill:#D2D764;" cx="326" cy="483" r="5.167"/>
</g>
<g>
</g>
<g>
</g>
<g>
</g>
<g>
</g>
<g>
</g>
<g>
</g>
<g>
</g>
<g>
</g>
<g>
</g>
<g>
</g>
<g>
</g>
<g>
</g>
<g>
</g>
<g>
</g>
<g>
</g>
</svg>
