<?xml version="1.0" encoding="iso-8859-1"?>
<!-- Generator: Adobe Illustrator 19.0.0, SVG Export Plug-In . SVG Version: 6.00 Build 0)  -->
<svg version="1.1" xmlns="http://www.w3.org/2000/svg" xmlns:xlink="http://www.w3.org/1999/xlink" x="0px" y="0px"
	 viewBox="0 0 512 512" style="enable-background:new 0 0 512 512;" xml:space="preserve">
<g id="_x2014_&#x43B;&#x43E;&#x439;_x5F_1">
</g>
<g id="_x2014_&#x43B;&#x43E;&#x439;_x5F_6">
	<g id="XMLID_475_">
		<path id="XMLID_496_" style="fill:none;" d="M227.635,236.94c-27.099-17.145-32.59-35.547-46.394-34.823
			c-12.167,0.639-15.862,15.366-29.64,35.956c12.914,5.515,29.616,10.826,45.825,10.349
			C211.688,248.003,218.01,243.318,227.635,236.94z"/>
		<path id="XMLID_501_" style="fill:#F9F193;" d="M256,0C134.913,0,33.533,84.097,6.899,197.051
			c9.647,12.12,18.696,33.933,38.572,35.187c21.771,1.373,32.357-23.513,57.545-19.78c10.071,1.492,11.12,5.877,27.873,15.285
			c3.627,2.037,11.132,6.24,20.711,10.331c13.779-20.589,17.473-35.317,29.64-35.956c13.805-0.724,19.295,17.677,46.394,34.823
			c7.332-4.857,16.576-10.696,32.729-16.391c9.209-3.246,27.495-9.672,45.185-11.49c8.421-16.846,19.083-39.94,33.489-71.68
			c9.893-21.797,18.259-40.414,32.369-41.81c11.256-1.115,19.348,9.402,28.323,17.533c27.766,25.156,57.671,21.779,83.74,25.496
			C440.903,56.294,355.052,0,256,0z"/>
		<path id="XMLID_505_" style="fill:#E5DA76;" d="M227.635,236.94c1.557,0.984,3.151,1.969,4.856,2.94
			c17.712,10.105,27.123,15.473,37.763,13.487c10.587-1.975,18.408-10.523,35.295-44.309c-17.69,1.818-35.976,8.244-45.185,11.49
			C244.211,226.244,234.967,232.083,227.635,236.94z"/>
		<g id="XMLID_494_">
			<path id="XMLID_502_" style="fill:#E2C72D;" d="M388.041,114.451c7.063,8.508,24.565,29.59,22.479,53.949
				c-1.661,19.387-14.132,22.19-12.587,36.865c2.405,22.851,33.685,25.881,35.066,43.158c1.056,13.226-25.357,29.677-78.225,62.041
				c0,0-8.159,5.012-23.065,16.471h170.264C508.472,304.405,512,280.621,512,256c0-42.332-10.337-82.227-28.53-117.402
				c-26.069-3.717-55.974-0.339-83.74-25.496c-8.975-8.131-17.067-18.648-28.323-17.533c-1.134,0.113-2.219,0.375-3.282,0.702
				C373.208,99.882,380.13,104.922,388.041,114.451z"/>
			<path id="XMLID_508_" style="fill:#FCE665;" d="M190.232,252.918c13.456,20.91,24.294,21.793,25.175,32.369
				c1.41,16.901-24.71,33.364-40.46,40.462c-0.982,0.442-1.896,0.796-2.838,1.185h159.6c14.906-11.458,23.065-16.471,23.065-16.471
				c52.868-32.364,79.281-48.815,78.225-62.041c-1.381-17.277-32.661-20.307-35.066-43.158
				c-1.545-14.675,10.927-17.477,12.587-36.865c2.086-24.359-15.416-45.441-22.479-53.949c-7.911-9.529-14.833-14.569-19.917-18.179
				c-12.171,3.747-19.988,21.064-29.086,41.108c-43.295,95.394-52.916,113.027-68.783,115.988
				c-10.641,1.986-20.051-3.383-37.763-13.487c-31.388-17.906-36.654-38.529-51.25-37.763c-0.222,0.012-0.42,0.066-0.637,0.087
				c-2.066,4.017-3.561,8.577-3.859,13.849C175.919,230.678,184.392,243.844,190.232,252.918z"/>
			<path id="XMLID_509_" style="fill:#E2C72D;" d="M174.946,325.748c15.75-7.098,41.87-23.561,40.46-40.462
				c-0.88-10.575-11.719-11.458-25.175-32.369c-5.84-9.073-14.313-22.239-13.487-36.865c0.298-5.272,1.792-9.832,3.859-13.849
				c-12.745,1.235-16.088,18.503-33.08,41.722c-31.847,43.517-78.428,62.311-101.154,71.482
				c-13.598,5.487-25.911,9.033-36.335,11.525h162.074C173.05,326.544,173.965,326.191,174.946,325.748z"/>
		</g>
		<path id="XMLID_623_" style="fill:#B79C1A;" d="M331.708,326.933h-159.6H10.034c1.528,5.306,3.179,10.557,5.035,15.715
			C50.585,441.384,145.033,512,256,512c113.321,0,209.381-73.66,243.076-175.69c1.023-3.099,1.987-6.227,2.896-9.376H331.708z"/>
		<g id="XMLID_499_" style="opacity:0.31;">
			<path id="XMLID_519_" style="fill:#E2C72D;" d="M499.076,336.31c1.023-3.099,1.987-6.227,2.896-9.376H331.708
				c14.906,6.574,23.065,9.449,23.065,9.449c52.868,18.568,79.281,28.007,78.225,35.594c-1.381,9.914-32.661,11.651-35.066,24.761
				c-1.545,8.419,10.927,10.027,12.587,21.151c2.086,13.975-15.416,26.071-22.479,30.951c-7.911,5.467-14.833,8.359-19.917,10.43
				c1.064,0.189,2.148,0.338,3.282,0.403c11.256,0.639,19.348-5.394,28.323-10.059c11.626-6.043,23.627-9.197,35.565-11.001
				C464.025,410.381,486.152,375.446,499.076,336.31z"/>
			<path id="XMLID_531_" style="fill:#EDD945;" d="M215.407,350.827c-0.88,6.067-11.719,6.574-25.175,18.571
				c-5.84,5.206-14.313,12.759-13.487,21.15c0.298,3.025,1.792,5.641,3.859,7.946c0.217,0.013,0.415,0.043,0.637,0.051
				c14.597,0.438,19.862-11.393,51.25-21.667c17.712-5.798,27.123-8.876,37.763-7.738c15.867,1.7,25.488,11.816,68.783,66.547
				c9.098,11.5,16.915,21.434,29.086,23.584c5.084-2.07,12.006-4.963,19.917-10.43c7.063-4.881,24.565-16.976,22.479-30.951
				c-1.661-11.124-14.132-12.732-12.587-21.151c2.405-13.11,33.685-14.848,35.066-24.761c1.056-7.587-25.357-17.026-78.225-35.594
				c0,0-8.159-2.875-23.065-9.449h-159.6c0.942,0.222,1.856,0.427,2.838,0.68C190.697,331.685,216.817,341.129,215.407,350.827z"/>
			<path id="XMLID_542_" style="fill:#E2C72D;" d="M147.523,374.555c16.992,13.322,20.336,23.229,33.08,23.938
				c-2.066-2.304-3.561-4.921-3.859-7.946c-0.826-8.391,7.647-15.944,13.487-21.15c13.456-11.997,24.294-12.504,25.175-18.571
				c1.41-9.698-24.71-19.142-40.46-23.214c-0.982-0.254-1.896-0.458-2.838-0.68H10.034c10.425,1.429,22.738,3.464,36.335,6.612
				C69.096,338.807,115.676,349.59,147.523,374.555z"/>
		</g>
		<path id="XMLID_513_" style="fill:#E5DA76;" d="M147.523,243.926c1.466-2.003,2.799-3.944,4.077-5.853
			c-9.579-4.091-17.084-8.294-20.711-10.331c-16.753-9.408-17.802-13.793-27.873-15.285c-25.188-3.732-35.773,21.154-57.545,19.78
			c-19.876-1.254-28.925-23.067-38.572-35.187c-4.409,18.7-6.817,38.168-6.877,58.2c9.493-2.432,19.68-1.567,25.442,3.511
			c4.29,3.78,2.779,6.937,8.767,14.836c3.566,4.704,11.54,15.225,21.58,15.511c11.488,0.328,16.647-13.005,26.974-10.79
			c3.853,0.827,5.586,3.21,8.767,6.069c2.207,1.985,4.509,3.644,6.842,5.059C115.396,278.451,132.989,263.785,147.523,243.926z"/>
		<path id="XMLID_511_" style="fill:#D6C54C;" d="M54.013,305.068c16.041-4.498,23.427-17.504,37.54-14.162
			c0.903,0.215,1.94,0.533,3.001,0.919c1.281-0.792,2.552-1.545,3.84-2.379c-2.333-1.415-4.635-3.074-6.842-5.059
			c-3.181-2.86-4.913-5.242-8.767-6.069c-10.327-2.215-15.486,11.118-26.974,10.79c-10.04-0.286-18.014-10.807-21.58-15.511
			c-5.987-7.899-4.476-11.055-8.767-14.836c-5.762-5.078-15.949-5.943-25.442-3.511C0.022,255.502,0,255.749,0,256
			c0,13.132,1.039,26.015,2.964,38.606C14.144,294.602,31.403,311.408,54.013,305.068z"/>
		<path id="XMLID_516_" style="fill:#9B891F;" d="M46.37,315.408c11.569-4.669,29.341-11.929,48.184-23.583
			c-1.061-0.386-2.099-0.705-3.001-0.919c-14.113-3.342-21.498,9.664-37.54,14.162c-22.61,6.34-39.869-10.466-51.048-10.462
			c1.685,11.016,4.043,21.813,7.07,32.327C20.459,324.441,32.772,320.895,46.37,315.408z"/>
		<path id="XMLID_514_" style="fill:none;" d="M431.187,326.933h1.416c-0.127-0.35-0.282-0.687-0.382-1.048
			C431.895,326.252,431.532,326.583,431.187,326.933z"/>
		<path id="XMLID_552_" style="fill:none;" d="M304.812,326.933h0.929c-0.192-0.179-0.412-0.33-0.593-0.523
			C305.046,326.592,304.919,326.755,304.812,326.933z"/>
		<path id="XMLID_553_" style="fill:none;" d="M459.262,322.61c-0.121-0.053-0.229-0.13-0.347-0.189
			c-0.018,1.592-0.356,3.095-0.874,4.511h0.991c-0.021-0.343-0.103-0.668-0.103-1.017
			C458.929,324.783,459.054,323.682,459.262,322.61z"/>
		<path id="XMLID_554_" style="fill:none;" d="M370.814,322.486c-1.113,1.827-2.667,3.346-4.496,4.448h9.462
			C373.811,325.836,372.103,324.323,370.814,322.486z"/>
		<g id="XMLID_503_">
			<path id="XMLID_557_" style="fill:#9B891F;" d="M150.894,318.056c0-10.401-8.431-18.832-18.832-18.832
				c-7.864,0-14.587,4.827-17.406,11.676c-2.289-1.401-4.952-2.251-7.831-2.251c-8.324,0-15.073,6.748-15.073,15.073
				c0,1.105,0.134,2.174,0.36,3.212h56.463C150.007,324.278,150.894,321.285,150.894,318.056z"/>
			<path id="XMLID_561_" style="fill:#9B891F;" d="M173.398,325.053c0-6.372-5.167-11.539-11.539-11.539
				s-11.539,5.167-11.539,11.539c0,0.644,0.088,1.265,0.19,1.88h22.699C173.309,326.318,173.398,325.696,173.398,325.053z"/>
			<path id="XMLID_565_" style="fill:#9B891F;" d="M190.007,326.361c0-4.587-3.718-8.305-8.305-8.305s-8.305,3.718-8.305,8.305
				c0,0.196,0.044,0.38,0.057,0.572h16.494C189.963,326.741,190.007,326.557,190.007,326.361z"/>
			<path id="XMLID_569_" style="fill:#9B891F;" d="M270.84,324.054c0-5.579-4.347-10.097-9.832-10.469
				c-2.035-4.181-6.285-7.088-11.249-7.088c-6.93,0-12.547,5.618-12.547,12.547c0,1.998,0.51,3.86,1.339,5.536
				c-0.661,0.602-1.051,1.436-1.204,2.353h33.044C270.654,326.012,270.84,325.059,270.84,324.054z"/>
			<path id="XMLID_577_" style="fill:#9B891F;" d="M305.148,326.41c0.181,0.192,0.401,0.343,0.593,0.523h25.863
				c0.289-0.779,0.499-1.601,0.499-2.48c0-3.965-3.213-7.179-7.177-7.179c-0.587,0-1.108,0.2-1.654,0.334
				c-0.782-5.068-5.123-8.96-10.41-8.96c-2.511,0-4.786,0.912-6.6,2.373c-2.64-6.886-9.267-11.798-17.083-11.798
				c-10.128,0-18.338,8.21-18.338,18.339c0,3.438,1.005,6.619,2.653,9.37h31.319C304.919,326.755,305.046,326.592,305.148,326.41z"
				/>
			<path id="XMLID_580_" style="fill:#9B891F;" d="M370.814,322.486c1.289,1.838,2.998,3.35,4.967,4.448h55.407
				c0.345-0.35,0.707-0.681,1.034-1.048c0.1,0.362,0.255,0.698,0.382,1.048h25.437c0.518-1.416,0.856-2.92,0.874-4.511
				c0.118,0.059,0.226,0.135,0.347,0.189c-0.208,1.072-0.333,2.173-0.333,3.306c0,0.349,0.082,0.674,0.103,1.017h34.331
				c0.021-0.343,0.103-0.668,0.103-1.017c0-9.536-7.731-17.268-17.269-17.268c-1.068,0-2.104,0.129-3.119,0.313
				c-1.59-3.741-5.299-6.366-9.622-6.366c-5.138,0-9.389,3.715-10.266,8.601c-2.229-1.59-4.939-2.549-7.887-2.549
				c-2.086,0-4.039,0.506-5.805,1.343c0.166-1.277,0.282-2.571,0.282-3.894c0-16.459-13.343-29.803-29.803-29.803
				c-14.16,0-25.989,9.886-29.024,23.126c-4.937,0.662-9.068,3.723-11.215,8.006c-2.405-2.926-6.004-4.831-10.086-4.831
				c-7.238,0-13.106,5.868-13.106,13.106c0,4.796,2.604,8.947,6.448,11.231h13.326C368.146,325.832,369.701,324.313,370.814,322.486
				z"/>
		</g>
		<g id="XMLID_507_" style="opacity:0.64;">
			<path id="XMLID_572_" style="fill:#9B891F;" d="M150.894,333.978c0,6.314-8.431,11.432-18.832,11.432
				c-7.864,0-14.587-2.931-17.406-7.088c-2.289,0.851-4.952,1.367-7.831,1.367c-8.324,0-15.073-4.098-15.073-9.151
				c0-0.67,0.134-1.32,0.36-1.949h56.463C150.007,330.201,150.894,332.018,150.894,333.978z"/>
			<path id="XMLID_549_" style="fill:#9B891F;" d="M173.398,329.73c0,3.869-5.167,7.004-11.539,7.004s-11.539-3.135-11.539-7.004
				c0-0.391,0.088-0.769,0.19-1.142h22.699C173.309,328.962,173.398,329.339,173.398,329.73z"/>
			<path id="XMLID_545_" style="fill:#9B891F;" d="M190.007,328.936c0,2.784-3.718,5.042-8.305,5.042s-8.305-2.258-8.305-5.042
				c0-0.118,0.044-0.23,0.057-0.347h16.494C189.963,328.706,190.007,328.818,190.007,328.936z"/>
			<path id="XMLID_544_" style="fill:#9B891F;" d="M270.84,330.337c0,3.386-4.347,6.13-9.832,6.355
				c-2.035,2.539-6.285,4.303-11.249,4.303c-6.93,0-12.547-3.411-12.547-7.618c0-1.212,0.51-2.343,1.339-3.36
				c-0.661-0.365-1.051-0.871-1.204-1.428h33.044C270.654,329.148,270.84,329.727,270.84,330.337z"/>
			<path id="XMLID_518_" style="fill:#9B891F;" d="M305.148,328.906c0.181-0.117,0.401-0.208,0.593-0.317h25.863
				c0.289,0.472,0.499,0.971,0.499,1.506c0,2.406-3.213,4.358-7.177,4.358c-0.587,0-1.108-0.122-1.654-0.203
				c-0.782,3.077-5.123,5.44-10.41,5.44c-2.511,0-4.786-0.554-6.6-1.442c-2.64,4.181-9.267,7.163-17.083,7.163
				c-10.128,0-18.338-4.985-18.338-11.133c0-2.087,1.005-4.018,2.653-5.688h31.319C304.919,328.697,305.046,328.795,305.148,328.906
				z"/>
			<path id="XMLID_517_" style="fill:#9B891F;" d="M370.814,331.288c1.289-1.116,2.998-2.034,4.967-2.7h55.407
				c0.345,0.212,0.707,0.414,1.034,0.636c0.1-0.22,0.255-0.424,0.382-0.636h25.437c0.518,0.86,0.856,1.773,0.874,2.739
				c0.118-0.035,0.226-0.082,0.347-0.114c-0.208-0.65-0.333-1.32-0.333-2.007c0-0.212,0.082-0.41,0.103-0.618h34.331
				c0.021,0.208,0.103,0.406,0.103,0.618c0,5.79-7.731,10.483-17.269,10.483c-1.068,0-2.104-0.078-3.119-0.191
				c-1.59,2.272-5.299,3.865-9.622,3.865c-5.138,0-9.389-2.255-10.266-5.223c-2.229,0.966-4.939,1.549-7.887,1.549
				c-2.086,0-4.039-0.307-5.805-0.815c0.166,0.775,0.282,1.559,0.282,2.363c0,9.993-13.343,18.092-29.803,18.092
				c-14.16,0-25.989-6-29.024-14.039c-4.937-0.402-9.068-2.26-11.215-4.86c-2.405,1.776-6.004,2.933-10.086,2.933
				c-7.238,0-13.106-3.562-13.106-7.956c0-2.912,2.604-5.432,6.448-6.818h13.326C368.146,329.257,369.701,330.179,370.814,331.288z"
				/>
		</g>
		<g id="XMLID_506_">
			<path id="XMLID_510_" style="fill:#5E3F12;" d="M313.413,370.705c-13.254,2.606-21.704,2.07-41.36,1.799
				c-12.886-0.178-25.775,0.09-38.663,0c-55.685-0.388-60.636,0.43-79.124-1.349c-22.76-2.19-34.14-3.285-43.608-8.542
				c-15.638-8.682-25.567-22.634-31.875-34.36c-1.164-0.818-1.867-1.32-1.867-1.32s13.972,27.071,21.736,33.267
				c11.618,9.274,55.748,20.68,55.748,20.68h155.55c0,0,25.847-3.61,32.369-8.89c3.972-3.216,9.106-15.84,10.968-20.671
				c-4.393,4.652-9.4,7.612-13.349,9.945C335.697,363.769,327.712,367.894,313.413,370.705z"/>
			<path id="XMLID_512_" style="fill:#75531B;" d="M320.74,359.302c-23.801,3.463-72.166,0.698-96.208,0
				c-19.356-0.562-58.198-1.483-77.326-4.496c-11.471-1.806-34.312-7.045-44.956-11.689c-5.556-2.424-18.615-11.456-23.466-14.864
				c6.307,11.726,16.236,25.678,31.875,34.36c9.467,5.257,20.848,6.352,43.608,8.542c18.488,1.779,23.438,0.961,79.124,1.349
				c12.888,0.09,25.777-0.178,38.663,0c19.657,0.272,28.106,0.808,41.36-1.799c14.299-2.81,22.284-6.935,26.525-9.44
				c3.95-2.333,8.956-5.293,13.349-9.945c0.454-1.178,0.72-1.908,0.72-1.908S329.326,358.052,320.74,359.302z"/>
			<path id="XMLID_515_" style="fill:#5E3F12;" d="M317.01,350.496c-1.48-5.727-6.769-17.099-11.461-20.702
				c-2.343-1.8-11.468-2.861-11.468-2.861l-3.249-2.112l12.078-7.547l-21.109,3.251l-9.807,16.066l11.684-7.301
				c1,0.878,2.713,1.713,2.713,1.713c1.57,1.263,2.722,2.97,3.303,4.898l3.039,10.077l-3.933,0.899l-8.657,14.093l13.714,0.014
				l23.154-1.215C317.01,359.77,317.589,352.741,317.01,350.496z"/>
		</g>
		<g id="XMLID_585_" style="opacity:0.63;">
			<path id="XMLID_597_" style="fill:#5E3F12;" d="M313.413,390.432c-13.254-1.939-21.704-1.541-41.36-1.338
				c-12.886,0.133-25.775-0.068-38.663,0c-55.685,0.287-60.636-0.321-79.124,1.004c-22.76,1.631-34.14,2.446-43.608,6.361
				c-15.638,6.466-25.567,16.855-31.875,25.588c-1.164,0.61-1.867,0.983-1.867,0.983s13.972-20.159,21.736-24.774
				c11.618-6.907,55.748-15.402,55.748-15.402h155.55c0,0,25.847,2.689,32.369,6.622c3.972,2.394,9.106,11.795,10.968,15.392
				c-4.393-3.463-9.4-5.667-13.349-7.405C335.697,395.597,327.712,392.525,313.413,390.432z"/>
			<path id="XMLID_593_" style="fill:#75531B;" d="M320.74,398.924c-23.801-2.579-72.166-0.519-96.208,0
				c-19.356,0.419-58.198,1.105-77.326,3.349c-11.471,1.345-34.312,5.246-44.956,8.704c-5.556,1.805-18.615,8.531-23.466,11.07
				c6.307-8.733,16.236-19.122,31.875-25.588c9.467-3.914,20.848-4.73,43.608-6.361c18.488-1.325,23.438-0.717,79.124-1.004
				c12.888-0.068,25.777,0.133,38.663,0c19.657-0.203,28.106-0.601,41.36,1.338c14.299,2.094,22.284,5.165,26.525,7.032
				c3.95,1.737,8.956,3.942,13.349,7.405c0.454,0.878,0.72,1.421,0.72,1.421S329.326,399.855,320.74,398.924z"/>
			<path id="XMLID_589_" style="fill:#5E3F12;" d="M317.01,405.482c-1.48,4.264-6.769,12.733-11.461,15.417
				c-2.343,1.34-11.468,2.13-11.468,2.13l-3.249,1.574l12.078,5.619l-21.109-2.421l-9.807-11.964l11.684,5.437
				c1-0.653,2.713-1.276,2.713-1.276c1.57-0.94,2.722-2.211,3.303-3.647l3.039-7.505l-3.933-0.67l-8.657-10.495l13.714-0.012
				l23.154,0.905C317.01,398.575,317.589,403.81,317.01,405.482z"/>
		</g>
		<path id="XMLID_601_" style="fill:#FFFBE1;" d="M253.446,83.072c-0.163,0-0.313,0.036-0.472,0.048
			c-1.139-3.678-4.396-6.384-8.363-6.709c-1.92-3.819-5.833-6.466-10.399-6.466c-6.449,0-11.677,5.228-11.677,11.677
			c0,0.039,0.01,0.075,0.012,0.114c-0.371-0.072-0.75-0.114-1.141-0.114c-2.312,0-4.294,1.325-5.289,3.246
			c-1.1,0.085-2.07,0.598-2.751,1.384c-0.35-0.178-0.73-0.302-1.148-0.302c-1.419,0-2.567,1.148-2.567,2.566
			c0,0.23,0.074,0.437,0.13,0.649c-2.907,0.538-4.97,1.864-4.97,3.422c0,2.035,3.511,3.686,7.841,3.686
			c1.715,0,3.288-0.267,4.579-0.705h29.449c0.434,0,0.84-0.108,1.221-0.261c0.593,0.165,1.239,0.261,1.918,0.261
			c0.687,0,1.339-0.098,1.939-0.265c0.538,0.157,1.098,0.265,1.688,0.265c3.45,0,6.246-2.797,6.246-6.247
			C259.692,85.869,256.896,83.072,253.446,83.072z"/>
		<path id="XMLID_604_" style="fill:#FFFBE1;" d="M338.462,61.493c-0.163,0-0.315,0.035-0.473,0.047
			c-1.138-3.676-4.394-6.383-8.362-6.708c-1.919-3.819-5.833-6.467-10.399-6.467c-6.449,0-11.678,5.228-11.678,11.678
			c0,0.039,0.012,0.075,0.012,0.114c-0.369-0.072-0.749-0.114-1.139-0.114c-2.312,0-4.294,1.325-5.29,3.245
			c-1.099,0.085-2.069,0.598-2.751,1.385c-0.349-0.178-0.728-0.303-1.148-0.303c-1.418,0-2.567,1.15-2.567,2.567
			c0,0.23,0.074,0.436,0.131,0.648c-2.907,0.54-4.97,1.865-4.97,3.423c0,2.035,3.51,3.684,7.841,3.684
			c1.714,0,3.288-0.265,4.578-0.705h29.451c0.434,0,0.839-0.107,1.221-0.26c0.593,0.165,1.238,0.26,1.918,0.26
			c0.687,0,1.34-0.096,1.939-0.264c0.537,0.157,1.096,0.264,1.688,0.264c3.449,0,6.246-2.796,6.246-6.246
			C344.708,64.289,341.911,61.493,338.462,61.493z"/>
		<path id="XMLID_605_" style="fill:#FFFBE1;" d="M198.73,48.33c-0.163,0-0.313,0.035-0.472,0.047
			c-1.139-3.676-4.396-6.383-8.363-6.708c-1.919-3.819-5.833-6.467-10.399-6.467c-6.449,0-11.677,5.228-11.677,11.677
			c0,0.04,0.01,0.077,0.012,0.116c-0.371-0.072-0.75-0.116-1.141-0.116c-2.312,0-4.294,1.326-5.289,3.246
			c-1.1,0.085-2.07,0.598-2.751,1.385c-0.35-0.178-0.73-0.303-1.148-0.303c-1.419,0-2.567,1.15-2.567,2.567
			c0,0.23,0.074,0.436,0.13,0.648c-2.907,0.54-4.97,1.865-4.97,3.423c0,2.035,3.511,3.684,7.841,3.684
			c1.715,0,3.288-0.265,4.579-0.705h29.449c0.436,0,0.84-0.107,1.221-0.26c0.593,0.165,1.239,0.26,1.918,0.26
			c0.687,0,1.339-0.096,1.939-0.264c0.538,0.156,1.098,0.264,1.688,0.264c3.45,0,6.246-2.797,6.246-6.247
			C204.976,51.126,202.18,48.33,198.73,48.33z"/>
	</g>
</g>
</svg>
